<?xml version="1.0" encoding="UTF-8"?>
<svg id="Layer_2" xmlns="http://www.w3.org/2000/svg" viewBox="0 0 456.8 421.58">
  <defs>
    <style>
      .cls-1 {
        fill: #0a4934;
      }
    </style>
  </defs>
  <g id="Layer_1-2" data-name="Layer_1">
    <g>
      <g>
        <path class="cls-1" d="M42.81,286.57c-17.32-9.13-25.91-14.85-25.91-26.17,0-10.1,5.86-16.5,18.55-16.5,13.76,0,22.07,11.05,23.86,26.31h14.71c-3.96-18.95-19.63-28.61-38.31-28.61-17.72,0-31.34,9.13-31.34,25.35,0,15.13,11.85,22.63,29.17,31.89,19.63,10.1,28.75,16.08,28.75,28.77-.12,11.85-8.45,18.81-20.44,18.81-17.32-.14-26.72-12.68-27-31.08H0c2.46,22.21,19.9,33.4,41.44,33.4,19.36,0,33.54-10.1,33.54-27.14s-13.22-24.67-32.17-35.03Z"/>
        <path class="cls-1" d="M190.4,242.59v-.99h-40.77v.99c10.9,1.41,12.45,4.11,12.45,17.96v30.16h-51.8v-30.16c0-13.86,1.55-16.56,12.45-17.96v-.99h-40.75v.99c10.9,1.41,12.45,4.11,12.45,17.96v69.22c0,12.88-1.55,16.56-12.45,17.98v.99h40.75v-.99c-10.9-1.42-12.45-5.1-12.45-17.98v-36.38h51.8v36.38c0,12.88-1.55,16.56-12.45,17.98v.99h40.77v-.99c-10.9-1.42-12.47-5.1-12.47-17.98v-69.22c0-13.86,1.57-16.56,12.47-17.96Z"/>
        <path class="cls-1" d="M239.96,242.59v-.99h-40.77v.99c10.9,1.41,12.45,4.11,12.45,17.96v69.22c0,12.88-1.55,16.56-12.45,17.98v.99h40.77v-.99c-10.9-1.42-12.47-5.1-12.47-17.98v-69.22c0-13.86,1.57-16.56,12.47-17.96Z"/>
        <path class="cls-1" d="M301.19,292.98c18.11-1.71,32.7-8.65,32.7-26.19,0-19.96-18.56-25.19-42.46-25.19h-42.9v.99c10.9,1.41,12.47,4.11,12.47,17.96v69.22c0,12.88-1.57,16.56-12.47,17.98v.99h42.05v-.99c-12.03-1.42-13.74-5.1-13.74-17.98v-36.09h9.21l37.22,55.06h19.4v-.85l-41.47-54.92ZM285.19,291.13h-8.36v-46.99h11.33c15.57,0,29.58,5.39,29.58,22.5,0,18.68-15.57,24.48-32.56,24.48Z"/>
        <path class="cls-1" d="M401.26,241.65c-32.76,0-55.83,21.43-55.83,53.5s23.07,53.62,55.83,53.62,55.53-21.42,55.53-53.62-23.07-53.5-55.53-53.5ZM401.26,346.47c-24.98,0-39.31-21.56-39.31-51.31s14.33-51.17,39.31-51.17,39.02,21.56,39.02,51.17-14.19,51.31-39.02,51.31Z"/>
      </g>
      <g>
        <path class="cls-1" d="M443.38,214.78c-7.39,0-13.4,6.01-13.4,13.4s6.01,13.42,13.4,13.42,13.42-6.01,13.42-13.42-6.01-13.4-13.42-13.4ZM443.38,238.93c-5.91,0-10.73-4.82-10.73-10.75s4.82-10.73,10.73-10.73,10.75,4.82,10.75,10.73-4.82,10.75-10.75,10.75Z"/>
        <path class="cls-1" d="M445.61,228.98c1.72-.37,2.75-1.44,2.75-3.23,0-2.21-1.58-3.4-4.72-3.4h-5.15v11.67h3.46v-4.5h.58l2.82,4.5h3.87v-.14l-3.62-4.91ZM443.06,227.3h-1.1v-2.63h1.14c1.31,0,1.87.39,1.87,1.27s-.58,1.36-1.9,1.36Z"/>
      </g>
      <path class="cls-1" d="M345.92,70.62l-83.05-10.71-5.46-4.92,43.09-14.54.72,1.26,14.21-.45,14.98-19.24c-2.79-.79-26.56,1.2-26.56,1.2l-4.19,7.7-52.75,17.8-1.63,7.86,12.44,11.21,2.52,1.16,78.94,10.18-3.68,11.39-13.24,3.47c-10.09-2.74-20.12-5.44-30.21-8.18l-86.48-1.99-.13-.05-16.59-6s29.7-1.63,30.26-1.79c.56-.16,8.15,4.34,8.73,4.73l-6.45-23.12-9.97,1.3-3.42-6.69s-2.44,10.04-2.51,11.22l-9.71,1.46,3.9-16.31,14.8-2.49,6.86,7.79-.81-6.27,3.23-.95,3.53-21.1-28.75-3.44-5.83-8.55-11.67-1.7-17.62,4.23,12.67-7.67-14.27-8.41-37.97,23.03-12.48,40.04,9.6-1.19-11.39,13.36,12.92,39.11,8.51-22.54-6.79,37.3,15.77-8.11c.44,1.52.89,3.04,1.33,4.56l-31.75,11.16v62.21l14.01-3.11,13.22-19.43-7.02-19.45h24.8c4.23,4.44,8.46,8.88,12.69,13.32l-10.16,24.29-18.1,10.43-4.39,9.88h36.77l36.19-57.26c10.18,3.63,20.34,7.25,30.51,10.88l8.55,14.13-6.86,16.36-15.9,5.11-5.09,10.78h34.61l20.98-32.77-7.55-21.71c3.28-3.88,6.53-7.79,9.81-11.67l31.49,32.7-11.06,16.41-15.32,4.53-3.97,12.5h35.14l22.73-35.6-6.25-12.69c.3-18.8.6-37.6.93-56.4-2.42-2.28-4.79-4.51-7.2-6.79h0s17.19-4.51,17.19-4.51l3.25-3.07,6.18-19.13-3.83-6.04ZM186.97,25.91l1.16,6.93c-3.6-1.67-7.18-3.32-10.78-5,3.21-.65,6.41-1.28,9.62-1.93Z"/>
      <g>
        <g>
          <path d="M114.82,376.93h30.52v4.77h-25.08v13.66h22.78v4.59h-22.78v15.17h25.8v5.02h-31.24v-43.21Z"/>
          <path d="M146.67,420.74h-32.45v-44.42h31.73v5.98h-25.08v12.45h22.78v5.8h-22.78v13.96h25.8v6.23ZM115.43,419.53h30.03v-3.8h-25.8v-16.38h22.78v-3.38h-22.78v-14.87h25.08v-3.56h-29.31v42Z"/>
        </g>
        <g>
          <path d="M153.62,405.51h5.32c.73,7.31,5.2,11.12,13.36,11.12,5.98,0,10.27-2.72,10.27-8.1,0-5.92-5.2-7.31-12.93-9-7.61-1.69-14.14-3.87-14.14-12.03,0-7.13,5.92-11.42,14.68-11.42,10.82,0,15.29,5.5,16.38,13.48h-5.14c-.79-6.16-4.77-9.25-11.12-9.25-5.86,0-9.73,2.48-9.73,6.95,0,4.9,4.83,6.35,11.3,7.61,8.4,1.69,16.07,3.75,16.07,13.48,0,8.1-6.59,12.63-15.89,12.63-12.15,0-17.95-6.77-18.43-15.47Z"/>
          <path d="M172.05,421.58c-11.36,0-18.48-6-19.04-16.04l-.04-.64h6.51l.05.55c.7,7.02,4.99,10.57,12.75,10.57,6.05,0,9.67-2.8,9.67-7.49,0-5.41-4.73-6.72-12.46-8.41-7.7-1.71-14.62-3.97-14.62-12.62,0-7.31,6-12.03,15.29-12.03,10,0,15.71,4.71,16.98,14l.09.69h-6.36l-.07-.53c-.73-5.7-4.36-8.72-10.52-8.72-5.71,0-9.12,2.37-9.12,6.34s3.64,5.61,10.81,7.02c9.06,1.82,16.56,4.14,16.56,14.07,0,8.04-6.48,13.23-16.5,13.23ZM154.27,406.11c.43,4.76,3.13,14.26,17.78,14.26,9.43,0,15.29-4.61,15.29-12.02,0-9.03-6.76-11.1-15.59-12.88-6.45-1.27-11.79-2.76-11.79-8.21,0-4.66,3.96-7.56,10.33-7.56s10.68,3.28,11.64,9.25h3.91c-1.36-8.25-6.5-12.26-15.67-12.26-8.68,0-14.08,4.14-14.08,10.81,0,7.77,6.19,9.77,13.67,11.43,7.19,1.57,13.41,2.93,13.41,9.6,0,5.37-4.17,8.7-10.88,8.7-8.17,0-12.97-3.84-13.9-11.12h-4.13Z"/>
        </g>
        <g>
          <path d="M193.86,376.93h34.2v4.77h-14.38v38.43h-5.44v-38.43h-14.38v-4.77Z"/>
          <path d="M214.29,420.74h-6.65v-38.43h-14.38v-5.98h35.41v5.98h-14.38v38.43ZM208.85,419.53h4.23v-38.43h14.38v-3.56h-32.99v3.56h14.38v38.43Z"/>
        </g>
        <g>
          <path d="M244.99,376.93h6.1l15.95,43.21h-5.92l-4.59-13.17h-17.22l-4.65,13.17h-5.56l15.89-43.21ZM240.88,402.55h14.14l-4.96-14.5c-.85-2.42-1.93-6.1-1.93-6.1h-.12s-1.15,3.63-1.99,6.1l-5.14,14.5Z"/>
          <path d="M267.91,420.74h-7.22l-4.59-13.17h-16.36l-4.65,13.17h-6.86l16.34-44.42h6.95l.15.4,16.26,44.02ZM261.55,419.53h4.62l-15.51-42h-5.26l-15.45,42h4.26l4.65-13.17h18.08l4.59,13.17ZM255.86,403.15h-15.84l5.42-15.31c.84-2.47,1.99-6.08,1.99-6.08l.13-.42h.9l.25.43s1.09,3.7,1.92,6.07l5.23,15.31ZM241.73,401.94h12.44l-4.68-13.7c-.48-1.37-1.04-3.16-1.44-4.45-.41,1.27-.99,3.05-1.47,4.45l-4.85,13.7Z"/>
        </g>
        <g>
          <path d="M268.07,376.93h34.2v4.77h-14.38v38.43h-5.44v-38.43h-14.38v-4.77Z"/>
          <path d="M288.49,420.74h-6.65v-38.43h-14.38v-5.98h35.41v5.98h-14.38v38.43ZM283.06,419.53h4.23v-38.43h14.38v-3.56h-32.99v3.56h14.38v38.43Z"/>
        </g>
        <g>
          <path d="M312.18,376.93h30.52v4.77h-25.08v13.66h22.78v4.59h-22.78v15.17h25.8v5.02h-31.24v-43.21Z"/>
          <path d="M344.03,420.74h-32.45v-44.42h31.73v5.98h-25.08v12.45h22.78v5.8h-22.78v13.96h25.8v6.23ZM312.78,419.53h30.03v-3.8h-25.8v-16.38h22.78v-3.38h-22.78v-14.87h25.08v-3.56h-29.31v42Z"/>
        </g>
      </g>
    </g>
  </g>
</svg>