<?xml version="1.0" encoding="UTF-8"?>
<svg id="Layer_1" data-name="Layer 1" xmlns="http://www.w3.org/2000/svg" viewBox="0 0 132 80">
  <defs>
    <style>
      .cls-1 {
        fill: #fff;
      }
    </style>
  </defs>
  <path class="cls-1" d="M19.49,48.96h4.48l-9.38-17.92h-5.32L0,48.96h4.33s6.35-2.74,7.9-3.2c.92-.27,2.01-.56,3.14-.69.28-.03.5-.04.72-.04.54,0,.99.09,1.39.28.15.07.29.17.41.28.26.25.52.77,1.42,2.91.07.16.13.31.19.45h0ZM11.72,42.68c-2.87.81-5.14,2.01-5.14,2.01l5.35-11.12,3.92,8.3s-1.48.06-4.14.81h0Z"/>
  <polygon class="cls-1" points="120.11 31.05 116.13 31.05 116.13 48.96 131.93 48.96 132 46.05 120.97 46.05 120.11 46.05 120.11 45.19 120.11 31.05"/>
  <path class="cls-1" d="M42.52,40.52c-1.06,0-2.09-.32-2.98-.92l-6.92-4.56v13.92h-3.99v-17.91h5.55l6.53,4.79c.22.16.45.29.7.37.37.12.75.18,1.12.17.36,0,.74-.05,1.12-.17.25-.08.49-.21.7-.37l6.53-4.79h5.55v17.91h-3.99v-13.92l-6.92,4.56c-.88.59-1.91.91-2.98.92"/>
  <path class="cls-1" d="M80.56,48.96h4.48l-9.38-17.92h-5.32l-9.27,17.92h4.33s6.35-2.74,7.9-3.2c.92-.27,2.01-.56,3.14-.69.28-.03.5-.04.72-.04.54,0,.99.09,1.39.28.15.07.29.17.41.28.26.25.52.77,1.42,2.91.07.16.13.31.19.45h0ZM72.79,42.68c-2.87.81-5.14,2.01-5.14,2.01l5.35-11.12,3.92,8.3s-1.48.06-4.14.81h0Z"/>
  <path class="cls-1" d="M106.99,48.96h4.48l-9.38-17.92h-5.32l-9.27,17.92h4.33s6.35-2.74,7.9-3.2c.92-.27,2.01-.56,3.14-.69.28-.03.5-.04.72-.04.54,0,.99.09,1.39.28.15.07.29.17.41.28.26.25.52.77,1.42,2.91.07.16.13.31.19.45h0ZM99.21,42.68c-2.87.81-5.14,2.01-5.14,2.01l5.35-11.12,3.92,8.3s-1.48.06-4.14.81h0Z"/>
</svg>