<?xml version="1.0" encoding="UTF-8"?>
<svg id="Layer_1" data-name="Layer 1" xmlns="http://www.w3.org/2000/svg" viewBox="0 0 132 80">
  <defs>
    <style>
      .cls-1 {
        fill: #fff;
      }
    </style>
  </defs>
  <path class="cls-1" d="M21.27,30.07l2.02,5.6c-3.58,1.53-7.51,2.38-11.64,2.38s-8.07-.85-11.64-2.39l2.02-5.59c2.94,1.32,6.2,2.05,9.62,2.05s6.68-.73,9.62-2.05M11.64,43.99c-3.42,0-6.68-.73-9.62-2.05l-2.02,5.59c3.58,1.54,7.51,2.39,11.64,2.39s8.07-.85,11.64-2.38l-2.02-5.6c-2.94,1.32-6.2,2.05-9.62,2.05M112.01,39.63c0,4.91-3.52,10.3-10.55,10.3h-6.61v-19.85h7.03c6.69,0,10.12,4.68,10.12,9.56M107.43,39.63c0-2.84-1.68-5.35-5.45-5.35h-2.59v11.44h2.03c4.07,0,6.01-3.01,6.01-6.09M72.31,49.93l-4.4-8.33c2.18-1.14,3.12-3.14,3.12-5.29,0-3.11-2.18-6.24-7.44-6.24h-7.93v19.85h4.53v-7.39h3.25l3.8,7.39h5.07ZM60.19,38.67v-4.38h2.45c2.33,0,3.62.44,3.62,2.15,0,1.91-1.49,2.23-3.62,2.23h-2.45ZM46.6,30.07h-5.58l-7.08,19.85h4.65l1.33-3.93h7.77l1.33,3.93h4.65l-7.07-19.85ZM41.3,41.95l2.51-7.42,2.51,7.42h-5.02ZM85.65,30.07h-5.58l-7.07,19.85h4.65l1.33-3.93h7.77l1.33,3.93h4.65l-7.07-19.85ZM80.35,41.95l2.51-7.42,2.51,7.42h-5.02ZM124.92,30.07h-5.58l-7.07,19.85h4.65l1.33-3.93h7.77l1.33,3.93h4.65l-7.08-19.85ZM119.62,41.95l2.51-7.42,2.51,7.42h-5.02Z"/>
</svg>