<?xml version="1.0" encoding="UTF-8"?>
<svg id="Layer_1" data-name="Layer 1" xmlns="http://www.w3.org/2000/svg" xmlns:xlink="http://www.w3.org/1999/xlink" viewBox="0 0 132 80">
  <defs>
    <style>
      .cls-1 {
        fill: #fff;
      }

      .cls-2 {
        mask: url(#mask);
      }
    </style>
    <mask id="mask" x="0" y="25.54" width="132" height="28.93" maskUnits="userSpaceOnUse">
      <g id="white-logo_svg_b" data-name="white-logo svg  b">
        <path class="cls-1" d="M131.99,25.54H0v28.93h131.99v-28.93Z"/>
      </g>
    </mask>
  </defs>
  <g class="cls-2">
    <g>
      <path class="cls-1" d="M92.14,54.45h-12.08v-1.45c.34-.03.83-.08,1.47-.12.65-.05,1.1-.14,1.36-.24.42-.19.72-.42.91-.73.19-.3.28-.73.28-1.28v-20.89c0-.48-.07-.87-.21-1.19-.13-.33-.46-.59-.98-.81-.46-.19-.94-.35-1.43-.46-.46-.12-.93-.21-1.4-.25v-1.47h12.08v1.46c-.39.02-.86.06-1.4.15-.48.08-.95.19-1.42.34-.47.16-.8.44-.96.79-.17.38-.26.8-.25,1.22v20.89c0,.45.09.85.28,1.2.18.34.49.62.93.83.27.11.7.23,1.29.36.6.12,1.11.2,1.52.22v1.45h0ZM55.4,54.45h-11.15v-1.43c.98-.07,1.8-.19,2.45-.4.65-.2.97-.44.97-.74,0-.12,0-.27-.04-.44-.02-.16-.06-.31-.11-.46l-2.23-6.4h-9.42c-.36.93-.65,1.76-.87,2.46-.22.69-.41,1.34-.59,1.93-.14.46-.25.93-.34,1.41-.06.36-.09.65-.09.88,0,.53.4.94,1.19,1.25.79.3,1.68.47,2.68.52v1.43h-10.11v-1.43c.33-.02.74-.1,1.23-.23.49-.13.9-.3,1.21-.51.45-.32.85-.7,1.18-1.15.27-.39.54-.94.81-1.64,1.51-4.01,3-8.02,4.47-12.05,1.63-4.46,3.09-8.43,4.35-11.91h1.52l8.95,24.58c.19.53.4.95.64,1.28.24.32.58.64,1.01.94.29.19.66.35,1.13.47.47.13.86.2,1.18.21v1.43h0ZM44.61,42.8l-4.07-11.06-4,11.06h8.07Z"/>
      <path class="cls-1" d="M77.82,45.4l-.9,9.05h-21.91v-.71l17.17-26.57h-6.29c-.73,0-1.34.02-1.83.04-.45.02-.9.07-1.35.17-.85.16-1.8.91-2.85,2.23-1.02,1.24-1.83,2.64-2.39,4.15h-1.34l.82-8.21h20.42v.73l-17.15,26.57h6.47c1.09,0,2.24-.09,3.47-.24,1.23-.17,2.03-.44,2.4-.85.83-.85,1.6-1.89,2.33-3.1.72-1.22,1.25-2.31,1.59-3.26h1.35,0ZM131.99,54.45h-12.09v-1.45c.33-.03.83-.08,1.47-.12.64-.05,1.1-.14,1.36-.24.41-.19.72-.42.9-.73.19-.3.28-.73.28-1.28v-20.89c0-.48-.07-.87-.21-1.19-.14-.33-.47-.59-.98-.81-.46-.19-.94-.35-1.43-.46-.58-.14-1.04-.23-1.41-.25v-1.47h12.09v1.46c-.4.02-.86.06-1.4.15-.54.09-1.01.2-1.42.34-.48.16-.79.44-.97.79-.16.39-.24.8-.23,1.22v20.89c0,.45.09.85.27,1.2.19.34.49.62.93.83.26.11.7.23,1.3.36.6.12,1.11.2,1.53.22v1.45h0ZM117.69,45.4l-.89,9.05h-21.55v-.71l16.88-26.57h-6.18c-.73,0-1.33.02-1.81.04-.48.02-.93.08-1.32.17-.84.16-1.78.91-2.81,2.23-1.04,1.31-1.82,2.7-2.35,4.15h-1.32l.8-8.21h20.1v.73l-16.89,26.57h6.37c1.07,0,2.21-.09,3.42-.24,1.22-.17,2-.44,2.37-.85.83-.85,1.58-1.89,2.28-3.1.71-1.22,1.23-2.31,1.57-3.26h1.32ZM24.86,25.54H0v3.4h24.86v-3.4ZM24.86,31.92H0v3.4h24.86v-3.4ZM24.86,38.3H0v3.4h24.86v-3.4ZM24.86,44.68H0v3.4h24.86v-3.4ZM24.86,51.06H0v3.4h24.86v-3.4Z"/>
    </g>
  </g>
</svg>