<?xml version="1.0" encoding="UTF-8"?>
<svg id="Layer_1" data-name="Layer 1" xmlns="http://www.w3.org/2000/svg" viewBox="0 0 132 80">
  <defs>
    <style>
      .cls-1 {
        fill: #fff;
      }
    </style>
  </defs>
  <path class="cls-1" d="M99.89,28.55c0-.51.41-.92.92-.92s.92.41.92.92-.41.92-.92.92-.92-.41-.92-.92M63.81,39.73c-.51,0-.92.41-.92.92s.41.92.92.92.92-.41.92-.92-.41-.92-.92-.92M65.2,40.65c0,.51.41.92.92.92s.92-.41.92-.92-.41-.92-.92-.92-.92.41-.92.92M101.53,34.99c-.92-.15-1.65-.85-1.65-1.8,0-1,.81-1.81,1.81-1.81.3,0,.59.08.84.21l.37-.48s-.04-.05-.07-.08c-.63-.51-1.47-.69-2.13-.69-2.21,0-3.04,2.04-3.04,2.89,0,.7.18,1.43.54,1.89h-5.22c-.66,0-.99-.38-.99-1.13v-6.13s-2.88,0-2.88,0v.62c.21.04.52.16.58.49,0,.05.01,5.02.01,5.02,0,2.21,1.66,2.21,2.28,2.21h11.5v-1.09s-1,.03-1.96-.13M87.91,32.88v3.34h-15.71c-.63,0-2.18-.02-2.18-2.04v-2.83h-1.29c-1.15,0-1.73.73-1.73,2.2,0,1.12.43,1.55,1.29,1.58h1.14v1.05c0,3.1-3.51,2.8-4.93,2.8-1.3,0-2.56-.39-3.23-1.18-.61-.73-.92-1.45-.92-2.78v-1.37c0-.38-.36-.51-.59-.55v-.62h2.88v2.5c0,1.69,0,3.09,1.86,3.09,2.53,0,2.87-1.16,2.87-2.1-.71-.01-2.59-.01-2.59-2.19,0-2.37,2.51-3.36,3.8-3.36h3.6v3.6c0,.75.33,1.13.99,1.13h4.69v-6.02c0-.39-.31-.54-.54-.6v-.63h2.84v5.7c.4-.74,2.14-2.99,4.43-3.21,3.32-.32,3.3,1.74,3.3,2.51M84.53,31.53c-2,0-4.28,3.01-4.48,3.6h5.55v-2.02c0-.54.03-1.58-1.07-1.58M111.64,33.46c.51,0,.92-.41.92-.92s-.41-.92-.92-.92-.92.41-.92.92.41.92.92.92M128.68,29.87v.64c.23.06.52.21.52.59v2.94c0,.73-.27,1.09-.94,1.09h-10.67c-.71,0-1.17-.56-1.17-1.27v-3.64h-2.89v.61c.23.04.59.16.59.62v2.51c0,2.28.08,4.43-2.18,4.43-2.59,0-2.54-1.94-2.53-4.08v-1.84h-2.82v.63c.24.06.54.21.54.6v2.07c0,1.48.08,3.48,4.83,3.48s4.45-1.91,4.45-3.48c0,0,.41.45,1.37.45h11.41c.61,0,2.3-.18,2.3-2.18v-4.16s-2.81,0-2.81,0ZM130.09,36.78c-.51,0-.92.41-.92.92s.41.92.92.92.92-.41.92-.92-.41-.92-.92-.92M117.05,52.13h-3.41v-.64c.23-.05.57-.19.57-.61v-6.44h-1.8c-.35,0-.5.83-.69,1.06l-.44-.21.34-1.87s.96.12,1.14.12h5.12c.16,0,.78-.15.83-.16l.38,1.91-.44.21c-.18-.23-.34-1.02-.69-1.06h-1.53v6.44c0,.44.38.59.6.63v.62ZM121.84,52.13h3.41v-.64c-.23-.05-.57-.19-.57-.61v-6.44h1.8c.35,0,.5.83.69,1.06l.44-.21-.33-1.87s-.96.12-1.14.12h-5.38c-.16,0-.78-.15-.83-.16l-.38,1.91.44.21c.18-.23.34-1.02.69-1.06h1.79v6.44c0,.44-.38.59-.6.63v.62ZM132,51.48c-.23-.05-.58-.19-.58-.61v-6.13c0-.41.34-.56.58-.61v-.62h-3.48v.62c.23.04.61.18.61.61v6.13c0,.43-.37.57-.61.61v.62h3.48v-.62ZM92.62,48.35h-3.11v.63c.23.05.54.2.54.6l.02,1.79c-.24.07-.5.1-.76.1-1.8,0-2.97-1.65-2.97-3.68s1.17-3.68,2.97-3.68c1.41,0,2.03,1,2.3,1.49l.47-.13-.35-1.97-.59.04c-.45.05-1.31-.2-2.09-.2-2.77,0-5.02,2-5.02,4.48s2.25,4.48,5.02,4.48c1.14,0,2.19-.34,3.03-.91v-1.8c0-.4.31-.54.54-.6v-.63ZM112.14,51.53v.6h-3.29v-.61c.25-.06.48-.24.36-.56l-.4-.96h-2.96l-.39.93c-.15.34.12.6.34.6h.06v.6h-2.25v-.54c.33-.11.59-.41.72-.72l3.15-7.14c.06-.14.19-.23.34-.23s.28.09.34.23l3.26,7.36c.25.51.73.44.73.44M108.35,48.9l-1.03-2.47-1.03,2.47h2.05ZM72.87,51.48c-.23-.05-.56-.19-.56-.61v-6.13c0-.41.33-.56.56-.61v-.62h-3.34v.63c.23.05.54.2.54.6v6.13c0,.4-.32.55-.54.6v.63h3.34v-.62ZM67.99,49.68c0,1.83-1.71,2.43-3.8,2.43h-4.48v-.63c.23-.05.54-.2.54-.6v-6.13c0-.4-.31-.55-.54-.6v-.63h4.48c1.62.01,3.33.85,3.33,2.07s-1.11,1.72-1.92,1.72c1.45.43,2.39,1.32,2.39,2.37M62.49,47.07h.46c1.94,0,2.52-.66,2.52-1.47,0-.77-.6-1.67-2.31-1.47-.2.02-.67.13-.67.63v2.32ZM65.84,49.58c0-1.04-.83-1.79-3.35-1.78v3.08c0,.52.53.61.71.63,1.78.16,2.64-1.01,2.64-1.92M80.61,43.52v.63c.23.05.54.2.54.6v3.73l-6.11-5.3v7.69c0,.41-.32.55-.55.6v.62h2.38v-.63c-.23-.05-.55-.19-.55-.6v-3.61l6.11,5.11v-7.62c0-.41.33-.56.56-.61v-.62h-2.38ZM102.11,50.9v-6.15c0-.39.29-.54.52-.6v-.63h-3.27v.63c.22.06.52.21.52.6v2.52h-3.21v-.02s0-2.5,0-2.5c0-.4.31-.55.54-.6v-.63h-3.34v.62c.23.05.57.19.57.61v6.15c0,.42-.29.51-.57.61v.6h3.34v-.6c-.25-.09-.54-.19-.54-.61v-2.54h3.21v2.54c0,.42-.28.51-.54.61v.62h3.34v-.62c-.28-.09-.57-.19-.57-.61M50.14,52.13l-9.93-10.09c-1.99-2.03-4.57-3.24-7.35-3.48l-4.6-4.67c-2.82-2.86-6.63-4.47-10.61-4.47H7.51c1.02,1.58,2.75,2.53,4.61,2.53h5.52c3.32,0,6.51,1.34,8.86,3.73l2.79,2.84h-15.76c1.02,1.58,2.75,2.53,4.61,2.53h13.67c2.51,0,4.86.99,6.63,2.79l5.69,5.78h-22.83c-3.17,0-6.1-1.61-7.85-4.3l-8.66-13.35c-1.01-1.56-2.73-2.5-4.58-2.5h-.22l11.16,17.24c2.2,3.4,5.91,5.44,9.92,5.44h29.05Z"/>
</svg>