<?xml version="1.0" encoding="UTF-8"?>
<svg id="Layer_1" data-name="Layer 1" xmlns="http://www.w3.org/2000/svg" viewBox="0 0 132 80">
  <defs>
    <style>
      .cls-1 {
        fill: #fff;
      }
    </style>
  </defs>
  <path class="cls-1" d="M131.9,33.92l.06-.14h-11.57c-3.41,0-6.31.7-8.72,2.09-2.33,1.32-4.15,3.39-5.17,5.87-.67,1.6-.86,3.06-.57,4.37.31,1.35,1.27,2.45,2.56,2.96,1.26.54,3.35.81,6.29.81h10.45l1.04-2.56h-5.88c-2.84,0-4.73-.37-5.67-1.1-1.04-.79-.92-2.62-.11-4.54,1.4-3.35,4.34-5.44,8.39-5.44h4.55l-1.05,2.51h3.47l2.02-4.85h-.1ZM91.37,43.43l7.04-6.85,1.46,6.85h-8.5ZM31.52,43.46l6.85-6.56,1.24,6.56h-8.09ZM97.81,33.76h-4.29l-16.49,15.45,6.44-15.43h-7.07l-8.54,6.69-4.4,3.61h-.19l2.07-5.26-2.53-5.04h-7.1l-6.46,15.46-3.72-15.46h-7.79l-17.2,16.11h4.31l4.39-4.22h10.83l.86,4.22h11.51l4.16-9.96c.21-.5.41-1.07.61-1.72.03.57.17,1.13.42,1.65l3.66,8.31h.62l10.47-8.27c.62-.53,1.22-1.09,1.78-1.68-.41.75-.69,1.32-.85,1.72l-4.16,9.96h15.61l4.35-4.22h11.25l.9,4.22h3.96l-3.85-16.12h-3.54ZM22.48,46.1c1.32-1.22,2.37-2.71,3.08-4.37,1.05-2.52.96-4.47-.27-5.87-1.23-1.4-3.55-2.09-6.97-2.09H6.76l-1.04,2.52h7.96c4.06,0,5.24,2.02,3.84,5.37-.81,1.95-1.53,3.72-3.22,4.52-1.54.73-3.14.94-5.98.94h-3.68l2.75-6.52h-3.48l-3.89,9.28h10.48c2.94,0,5.26-.27,6.96-.81,1.88-.6,3.6-1.61,5.04-2.96"/>
</svg>