<?xml version="1.0" encoding="UTF-8"?>
<svg id="Layer_1" data-name="Layer 1" xmlns="http://www.w3.org/2000/svg" viewBox="0 0 132 80">
  <defs>
    <style>
      .cls-1 {
        fill: #fff;
      }
    </style>
  </defs>
  <path class="cls-1" d="M26.8.8h78.4v78.4H26.8V.8ZM26,80h80V0H26v80Z"/>
  <path class="cls-1" d="M45.95,62.85l.67-2.04c.1-.36.19-.74.26-1.23.07.49.16.87.27,1.23l.67,2.04h-1.87ZM45.18,56.83l-3.58,9.57h3.2l.42-1.27h3.31l.41,1.27h3.2l-3.57-9.57h-3.39Z"/>
  <polygon class="cls-1" points="55.98 56.83 52.82 56.83 52.82 66.4 60.06 66.4 60.06 63.64 55.98 63.64 55.98 56.83"/>
  <g>
    <path class="cls-1" d="M65,63.75h-.89v-4.26h.89c1.12,0,1.8.57,1.8,2.13s-.68,2.13-1.8,2.13M65.08,56.83h-4.13v9.57h4.13c3.43,0,4.96-1.98,4.96-4.78s-1.53-4.78-4.96-4.78"/>
    <path class="cls-1" d="M74.19,62.85l.67-2.04c.1-.36.19-.74.26-1.23.07.49.16.87.27,1.23l.67,2.04h-1.87ZM73.43,56.83l-3.58,9.57h3.2l.42-1.27h3.31l.41,1.27h3.2l-3.57-9.57h-3.39Z"/>
    <path class="cls-1" d="M85.44,61.21h-1.22v-1.8h1.22c.61,0,.97.37.97.9s-.36.9-.97.9M87.94,63.07c.96-.48,1.64-1.37,1.64-2.86,0-2.61-2.04-3.38-4.07-3.38h-4.44v9.57h3.16v-2.83h.74l1.97,2.83h3.47l-2.46-3.33Z"/>
  </g>
  <rect class="cls-1" x="80.45" y="12.8" width="9.69" height="17.77"/>
  <g>
    <path class="cls-1" d="M83.99,44.46c0,1.57-1.35,1.55-2.25,1.55h-4.5v7.87h12.9v-15.25s-1.8-3.69-6.21-6.66l-5.74,5.67s5.79,3,5.79,6.82"/>
    <path class="cls-1" d="M54.94,25.72c0-5.15,3.31-8.82,3.31-8.82l6.62,3.7c-3.15,3.97-2.49,8.09,1.18,8.09s3.56-3.35,3.56-3.74v-12.14h7.83v12.72c0,5.48-4.43,11.22-11.3,11.22-6.18,0-11.2-5.01-11.2-11.03"/>
    <path class="cls-1" d="M55.21,33.34h-3.38v3.77c0,8.6-4.74,9.36-7.46,9.32h-2.55v7.45h12.63c4.37-3.1,6.68-8.34,7.02-15.79-2.53-.94-4.7-2.61-6.25-4.76"/>
    <path class="cls-1" d="M66.14,38.94c-.54,0-1.08-.04-1.61-.1v15.05h9.68v-17.63c-2.25,1.69-5.04,2.69-8.07,2.69"/>
  </g>
</svg>