<?xml version="1.0" encoding="UTF-8"?>
<svg id="Layer_1" data-name="Layer 1" xmlns="http://www.w3.org/2000/svg" viewBox="0 0 132 80">
  <defs>
    <style>
      .cls-1 {
        fill: #fff;
      }
    </style>
  </defs>
  <polygon class="cls-1" points="0 38.78 0 53.71 9.81 53.71 9.81 51.79 2.18 51.79 2.18 47.31 8.15 47.31 8.15 45.4 2.18 45.4 2.18 40.7 9.81 40.7 9.81 38.78 0 38.78"/>
  <polygon class="cls-1" points="15.36 38.78 15.36 53.71 23.25 53.71 23.25 51.79 17.55 51.79 17.55 38.78 15.36 38.78"/>
  <polygon class="cls-1" points="28.79 38.78 28.79 53.71 36.69 53.71 36.69 51.79 30.99 51.79 30.99 38.78 28.79 38.78"/>
  <rect class="cls-1" x="42.23" y="38.78" width="2.19" height="14.93"/>
  <path class="cls-1" d="M75.85,38.57c-5.7,0-7.38,4.54-7.38,7.66s1.68,7.68,7.38,7.68c2,.08,3.94-.68,5.35-2.09v-5.35h-5.33v1.92h3.13v2.58c-.92.65-2.03.98-3.15.96-4.5,0-5.16-4.27-5.16-5.7s.66-5.72,5.16-5.72c1.43.01,2.8.58,3.81,1.58l1.37-1.41c-1.28-1.41-2.67-2.11-5.18-2.11"/>
  <polygon class="cls-1" points="85.36 38.78 85.36 40.7 89.69 40.7 89.69 53.71 91.89 53.71 91.89 40.7 96.26 40.7 96.26 38.78 85.36 38.78"/>
  <path class="cls-1" d="M106.95,51.96c-4.5,0-5.16-4.3-5.16-5.74s.66-5.72,5.16-5.72,5.14,4.29,5.14,5.72-.63,5.74-5.14,5.74M106.95,38.57c-5.7,0-7.38,4.54-7.38,7.66s1.68,7.68,7.38,7.68,7.38-4.48,7.38-7.68-1.69-7.66-7.38-7.66"/>
  <path class="cls-1" d="M62.68,53.83l.24-.11v-14.93h-2.21v9.92l-10.98-10.98v2.64c-.03.34.11.67.36.9l.73.73v11.73h2.2v-9.55l9.67,9.66Z"/>
  <path class="cls-1" d="M36.22,25.1l3.03,3.03,3.03-3.03-3.03-3.03-3.03,3.03ZM33.96,25.1l10.47-10.47v1.82c.03.29-.09.57-.32.76l-3.74,3.74,3.74,3.74c.22.18.34.47.32.76v1.82l-1.03-1.03-3.03,3.03,3.74,3.74c.22.18.34.47.32.75v1.82l-10.47-10.46Z"/>
  <polygon class="cls-1" points="131.73 53.83 131.96 53.72 131.96 38.78 129.76 38.78 129.76 48.71 120.09 39.03 119.87 39.13 119.87 53.72 122.07 53.72 122.07 44.17 131.73 53.83"/>
  <path class="cls-1" d="M53.43,61.47c0,.12-.02.25-.08.36-.05.09-.12.17-.2.23-.09.06-.19.11-.29.13-.12.03-.24.04-.36.04h-.94v-1.55h.91c.12,0,.25.02.36.05.11.03.22.07.31.14.09.07.16.15.21.24.06.11.08.23.08.35M53.53,60.34c-.17-.11-.36-.18-.55-.22-.18-.04-.37-.06-.56-.06h-1.54v5.16h.68v-2.35h.96c.2,0,.4-.03.59-.08.19-.05.36-.14.51-.25.15-.12.27-.27.36-.44.09-.2.14-.41.14-.63,0-.24-.05-.48-.16-.7-.1-.18-.25-.33-.42-.44"/>
  <path class="cls-1" d="M62.08,61.71c-.03.09-.08.18-.14.24-.09.09-.2.16-.32.2-.18.06-.36.09-.55.08h-.88v-1.55h.88c.19,0,.37.02.55.08.12.04.23.11.32.2.07.07.12.15.14.24.06.16.06.33,0,.5M61.89,62.75c.16-.05.31-.13.44-.23.14-.11.26-.25.34-.41.1-.2.14-.42.13-.64,0-.2-.03-.4-.11-.59-.07-.15-.17-.29-.29-.41-.12-.11-.25-.19-.4-.25-.14-.05-.28-.09-.42-.12-.13-.02-.25-.04-.38-.04h-1.66v5.16h.68v-2.34h.69l1.4,2.35h.75l-1.47-2.41c.1-.02.2-.04.29-.07"/>
  <path class="cls-1" d="M70.67,60.57c.28,0,.57.05.83.16.24.1.45.25.63.44.18.19.31.41.4.66.19.53.19,1.11,0,1.65-.09.24-.22.47-.4.66-.18.19-.39.34-.63.44-.53.21-1.12.21-1.66,0-.24-.1-.45-.25-.62-.44-.17-.19-.31-.41-.4-.66-.19-.53-.19-1.11,0-1.65.09-.24.22-.47.4-.66.18-.19.39-.34.62-.44.26-.11.55-.16.83-.16M72.59,60.7c-.24-.24-.53-.44-.84-.57-.7-.27-1.47-.27-2.16,0-.32.13-.6.32-.84.57-.24.25-.42.54-.55.86-.26.7-.26,1.47,0,2.17.12.32.31.61.55.86.24.25.53.44.84.57.7.27,1.47.27,2.16,0,.32-.13.6-.32.84-.57.24-.25.43-.54.55-.86.14-.35.2-.71.2-1.09,0-.37-.06-.74-.2-1.08-.12-.32-.31-.61-.55-.86"/>
  <path class="cls-1" d="M81.36,61.47c0,.12-.02.25-.08.36-.05.09-.12.17-.21.23-.09.06-.19.11-.29.13-.12.03-.24.04-.36.04h-.94v-1.55h.91c.12,0,.25.02.37.05.11.03.21.07.31.14.09.07.16.15.21.24.06.11.08.23.08.35M81.45,60.34c-.17-.11-.36-.18-.56-.22-.18-.04-.37-.06-.56-.06h-1.54v5.16h.7v-2.35h.96c.2,0,.4-.03.59-.08.19-.05.36-.14.51-.25.15-.12.28-.27.36-.44.09-.2.14-.41.13-.63,0-.24-.05-.48-.16-.7-.1-.18-.25-.33-.42-.44"/>
  <polygon class="cls-1" points="88.13 62.88 90.53 62.88 90.53 62.24 88.13 62.24 88.13 60.7 90.7 60.7 90.7 60.06 87.44 60.06 87.44 65.23 90.81 65.23 90.81 64.59 88.13 64.59 88.13 62.88"/>
  <path class="cls-1" d="M98.8,61.7c-.03.09-.08.18-.15.24-.09.09-.2.15-.31.2-.18.06-.36.09-.55.08h-.88v-1.55h.88c.19,0,.37.02.55.08.12.04.22.11.31.2.07.07.12.15.15.24.03.08.04.16.04.25,0,.08-.02.17-.04.25M98.6,62.75c.16-.05.31-.13.45-.23.14-.11.26-.25.34-.41.1-.2.14-.42.14-.64,0-.2-.03-.4-.11-.59-.07-.15-.17-.29-.29-.4-.12-.11-.25-.19-.4-.25-.26-.09-.52-.15-.79-.16h-1.68v5.15h.68v-2.35h.69l1.39,2.35h.78l-1.47-2.41c.1-.02.2-.05.29-.08"/>
  <polygon class="cls-1" points="104.43 60.7 106.12 60.7 106.12 65.23 106.8 65.23 106.8 60.7 108.5 60.7 108.5 60.06 104.43 60.06 104.43 60.7"/>
  <rect class="cls-1" x="113.68" y="60.06" width=".68" height="5.18"/>
  <polygon class="cls-1" points="120.82 62.88 123.23 62.88 123.23 62.24 120.82 62.24 120.82 60.7 123.39 60.7 123.39 60.06 120.14 60.06 120.14 65.23 123.5 65.23 123.5 64.59 120.82 64.59 120.82 62.88"/>
  <path class="cls-1" d="M131.78,63.07c-.13-.19-.31-.34-.51-.44-.2-.11-.42-.19-.64-.24-.21-.05-.41-.12-.6-.2-.16-.07-.31-.17-.43-.29-.12-.14-.17-.32-.16-.5,0-.13.02-.25.08-.36.05-.1.12-.19.21-.26.1-.07.21-.12.32-.16.3-.09.62-.07.9.05.15.08.28.2.37.34l.07.09.59-.42-.07-.09c-.16-.23-.39-.41-.65-.52-.46-.18-.96-.2-1.43-.06-.2.06-.38.15-.54.28-.34.26-.54.68-.52,1.11,0,.22.04.43.12.63.07.17.18.31.32.43.13.12.28.21.44.28.15.06.31.13.48.18.16.05.32.1.47.15.14.05.27.11.39.18.1.06.19.14.26.24.06.11.1.24.09.37,0,.12-.02.24-.08.35-.05.1-.12.2-.21.27-.09.08-.2.14-.32.18-.13.04-.26.07-.4.07-.21,0-.42-.04-.61-.14-.18-.1-.33-.25-.43-.43l-.06-.1-.63.42.07.09c.19.27.45.48.75.62.3.12.62.18.94.18.21,0,.42-.03.62-.1.19-.06.37-.16.53-.29.15-.13.28-.29.37-.48.09-.2.14-.42.14-.64.02-.28-.06-.56-.21-.79"/>
</svg>