<?xml version="1.0" encoding="UTF-8"?>
<svg id="Layer_1" data-name="Layer 1" xmlns="http://www.w3.org/2000/svg" viewBox="0 0 132 80">
  <defs>
    <style>
      .cls-1 {
        fill: #fff;
      }
    </style>
  </defs>
  <g id="Page-1">
    <path id="Shape" class="cls-1" d="M19.15,48.81l-.39,2.6H0c.78-1.8.73-2.81.73-4.11v-17.86c0-1.26.05-2.36-.73-4.11h18.3l.03,2.65c-.34-.14-.62-.26-.87-.38-.68-.25-1.54-.49-2.43-.48H5v10.21h11.77l-.58,2.01H5v10.22h10.61c1.79.03,3.57-.98,3.57-.98l-.05.22s0,0,.02,0ZM47.39,51.41c.25-1.28.25-3.1.05-4.58l-1.67-12.29-9.1,16.85h-1.73l-9.25-17.61-1.8,13.32c-.2,1.54-.25,3.48-.09,4.31h-3.25c.63-1.33.78-1.91,1.08-4.1l2.94-21.98h1.5l10.79,20.51,10.78-20.51h1.13l3.04,21.93c.3,2.18.53,2.81,1.14,4.15h-5.56ZM74.78,51.41l-4.33-9.55h-8.71l-4.27,9.55h-3.4c1.08-1.34,1.45-1.96,2.21-3.63l10.1-22.45h1.14l9.93,21.82c1.06,2.13,1.56,2.79,3.08,4.26h-5.74ZM102.02,51.41l-4.33-9.55h-8.71l-4.27,9.55h-3.4c1.08-1.34,1.45-1.96,2.21-3.63l10.1-22.45h1.14l9.94,21.82c1.06,2.13,1.56,2.79,3.08,4.26h-5.75ZM126.71,51.43c-2.61-2.38-5.98-5.53-10.2-10.53-1.21-1.41-2.06-1.59-2.61-1.63v8.03c0,1.29,0,2.31.74,4.11h-5.74c.78-1.8.73-2.81.73-4.11v-17.88c0-1.26.05-2.36-.73-4.11h5.62c3.84,0,12.92-.34,12.92,7.16,0,3.96-3.15,6.09-6.84,6.63l-1.09.11s11.98,11.71,12.49,12.21h-5.29ZM119.92,37.61h0c2.42-.91,3.24-3.2,3.15-5.15-.09-1.87-.93-5.94-9.16-5.61v11.12s4.61.25,5.9-.31c.07-.03.11-.05.11-.05ZM89.82,40.04h7.03l-3.55-7.79-3.49,7.79ZM62.58,40.04h7.03l-3.55-7.79-3.49,7.79Z"/>
  </g>
</svg>