<?xml version="1.0" encoding="UTF-8"?>
<svg id="Layer_1" data-name="Layer 1" xmlns="http://www.w3.org/2000/svg" viewBox="0 0 132 80">
  <defs>
    <style>
      .cls-1 {
        fill: #fff;
      }
    </style>
  </defs>
  <path class="cls-1" d="M30.58,7.71h.47c.97,0,1.73.26,2.3.82.88.86,1.29,2.36,1.29,4.73v12.58H10.58v-12.57c0-2.37.41-3.87,1.29-4.73.56-.54,1.35-.82,2.29-.82h.49v-.89H0v.89h.45c.98,0,1.74.26,2.32.82.87.86,1.29,2.36,1.29,4.73v32c0,2.38-.41,3.88-1.29,4.73-.58.55-1.37.81-2.46.81h-.31v.89h14.64v-.89h-.46c-.98,0-1.74-.25-2.31-.81-.88-.86-1.29-2.36-1.29-4.73v-17.94h24.07v17.94c0,2.38-.41,3.88-1.29,4.73-.57.56-1.34.81-2.34.81h-.44v.9h14.64v-.89h-.46c-.98,0-1.74-.25-2.32-.81-.88-.86-1.29-2.36-1.29-4.73V13.26c0-2.37.41-3.87,1.3-4.74.59-.55,1.35-.82,2.32-.82h.45v-.89h-14.64v.89Z"/>
  <path class="cls-1" d="M89.12,51.69c1.3,0,4.5,0,4.5,0v-.89l-.2-.03c-2.69-.48-4.83-2.96-6.25-4.64l-.12-.15c-1.63-1.92-3.1-4-4.51-6l-1.2-1.68c-.3-.41-.59-.83-.89-1.24-.32-.45-.65-.87-.99-1.26-1.41-1.69-2.89-3-4.56-4-.11-.07-.26-.17-.44-.29l-.22-.14c-.12-.08-.25-.16-.38-.25l-.78-.49.92-.1c8.76-.97,13.79-5.38,13.79-12.1,0-7.38-5.75-11.61-15.75-11.61h-19.8v.89h.47c.98,0,1.73.28,2.31.83.88.85,1.29,2.35,1.29,4.73v31.98c0,2.37-.4,3.87-1.29,4.73-.61.58-1.43.84-2.53.82h-.25v.89h14.66v-.89h-.47c-.99,0-1.75-.25-2.32-.81-.88-.87-1.29-2.37-1.29-4.74v-14.51h4.98l.08.06c.16.09.31.18.43.26l.21.14s.07.04.08.04c.74.42,1.43.91,2.05,1.45,1.49,1.27,2.77,2.87,3.78,4.74.74,1.35,1.39,2.65,2.1,4.07l.04.09c2.91,5.85,5,10.1,11.55,10.1h1.01ZM70.3,29.28h-7.49V8.29h9.22c5.72,0,8.87,3.6,8.87,10.15s-3.96,10.84-10.6,10.84"/>
  <path class="cls-1" d="M131.11,43.15s-.8,1.81-.82,1.84c-1.83,3.71-4.85,5.24-10.15,5.24h-9.44v-22.16h6.17c4.86,0,7.24,1.15,8.49,4.12l.22.49h.89v-10.15h-.9l-.21.44c-1.26,2.62-3.64,3.63-8.49,3.63h-6.17V8.28h8.06c5.88,0,9.13,1.83,10.88,6.12l.07.16h.9v-7.73h-30.49v.89h.46c.99,0,1.74.27,2.32.83.88.86,1.3,2.36,1.3,4.72v31.99c0,2.36-.41,3.86-1.29,4.73-.59.55-1.35.82-2.35.82h-.45v.89h31.89v-8.55h-.89Z"/>
  <path class="cls-1" d="M4.41,64.74H1.41v.26h.12c.16,0,.28.04.38.14.14.15.21.41.21.83v5.89c0,.42-.07.69-.21.83-.09.09-.21.14-.37.14h-.13v.26h3.44c.61,0,1.15-.09,1.63-.28.47-.18.88-.46,1.21-.82.33-.36.58-.8.75-1.31.17-.52.26-1.11.26-1.77,0-2.65-1.57-4.17-4.29-4.17M4.85,72.72h-1.49v-7.62h1.06c1.94,0,3.05,1.39,3.05,3.81,0,2.42-.96,3.81-2.62,3.81"/>
  <path class="cls-1" d="M19.38,71.45c-.06.13-.14.33-.14.34-.31.67-.82.94-1.74.94h-1.61v-3.98h1.04c.83,0,1.23.2,1.45.73l.05.12h.26v-1.96h-.26l-.05.11c-.21.46-.62.64-1.45.64h-1.04v-3.28h1.37c1.01,0,1.57.33,1.87,1.09l.02.06h.26v-1.52h-5.46v.26h.13c.16,0,.28.05.38.14.15.15.21.41.21.84v5.88c0,.42-.07.69-.21.83-.09.09-.22.14-.38.14h-.12v.26h5.71v-1.67h-.26v.03Z"/>
  <path class="cls-1" d="M30.58,65h.17c.23,0,.39.06.48.18.12.17.13.45.01.89l-1.85,5.57-2.18-5.61c-.15-.4-.16-.69-.04-.86.08-.11.21-.17.39-.17h.14v-.26h-2.74v.26h.09c.32,0,.56.26.85.91l2.77,7.12.02.06h.64l2.38-7.16c.19-.56.41-.93.85-.93h.17v-.26h-2.15v.26Z"/>
  <path class="cls-1" d="M43.33,71.45c-.06.13-.14.33-.14.34-.31.67-.82.94-1.74.94h-1.61v-3.98h1.04c.83,0,1.24.2,1.45.73l.05.12h.26v-1.96h-.26l-.05.11c-.21.46-.62.64-1.45.64h-1.04v-3.28h1.37c1.01,0,1.57.33,1.86,1.09l.02.06h.26v-1.52h-5.46v.26h.13c.16,0,.28.05.38.14.15.15.21.41.21.84v5.88c0,.42-.07.69-.21.83-.09.09-.22.14-.38.14h-.12v.26h5.71v-1.67h-.26v.03Z"/>
  <path class="cls-1" d="M54.48,71.62c-.3.78-.83,1.1-1.81,1.1h-1.64v-6.75c0-.42.07-.69.21-.83.09-.09.22-.14.37-.14h.13v-.26h-2.65v.26h.12c.16,0,.28.04.38.14.14.15.21.42.21.84v5.88c0,.42-.07.69-.21.84-.09.09-.22.14-.4.14h-.1v.26h5.73v-1.67h-.26l-.08.2Z"/>
  <path class="cls-1" d="M64.25,64.64c-1.05,0-1.97.36-2.73,1.07-.87.82-1.32,1.89-1.32,3.18s.38,2.31,1.14,3.1c.76.8,1.7,1.2,2.81,1.2s2.05-.41,2.82-1.23c.78-.82,1.17-1.86,1.17-3.09s-.39-2.22-1.16-3.02c-.77-.8-1.69-1.21-2.74-1.21M66.06,71.9c-.5.61-1.15.92-1.92.92-.72,0-1.31-.28-1.75-.84-.57-.73-.86-1.78-.86-3.13s.28-2.33.83-3.02c.44-.55,1.04-.83,1.78-.83.78,0,1.4.28,1.84.83.55.7.83,1.77.83,3.19,0,1.31-.25,2.28-.75,2.88"/>
  <path class="cls-1" d="M76.92,64.74h-3.52v.26h.13c.16,0,.28.04.37.14.15.15.21.42.21.84v5.88c0,.42-.07.69-.21.84-.09.09-.22.14-.39.14h-.11v.26h2.66v-.26h-.13c-.16,0-.28-.05-.38-.14-.15-.15-.21-.42-.21-.84v-2.62h1.27c1.95,0,3.11-.87,3.11-2.31,0-.58-.17-1.05-.52-1.42-.47-.5-1.26-.77-2.28-.77M77.94,68.37c-.31.33-.77.5-1.32.5h-1.27v-3.77h1.57c.97,0,1.51.65,1.51,1.82,0,.61-.17,1.11-.49,1.45"/>
  <path class="cls-1" d="M93.65,72.69c-.15-.15-.21-.41-.21-.83v-5.88c0-.42.07-.69.21-.84.09-.09.22-.14.39-.14h.11v-.26h-1.97l-2.61,6.4-2.73-6.34-.02-.06h-1.79v.26h.12c.36,0,.53.23.55.73v6.31h0c-.01.5-.24.79-.62.79h-.12v.26h1.88v-.26h-.12c-.37,0-.6-.29-.61-.79v-.02s0,0,0,0v-5.65s2.83,6.39,2.83,6.39l.02.06h.36l2.89-7.06v6.11c0,.42-.07.69-.21.84-.09.09-.21.14-.38.14h-.12v.26h2.66v-.26h-.13c-.16,0-.28-.05-.37-.14"/>
  <path class="cls-1" d="M104.89,71.45c-.06.13-.14.33-.14.34-.31.67-.82.94-1.74.94h-1.61v-3.98h1.04c.83,0,1.24.2,1.45.73l.05.12h.26v-1.96h-.26l-.05.11c-.21.46-.62.64-1.45.64h-1.04v-3.28h1.37c1.01,0,1.57.33,1.86,1.09l.02.06h.26v-1.52h-5.46v.26h.13c.16,0,.28.05.38.14.15.15.21.41.21.84v5.88c0,.42-.07.69-.21.83-.09.09-.22.14-.38.14h-.12v.26h5.71v-1.67h-.26v.03Z"/>
  <path class="cls-1" d="M116.18,65h.13c.17,0,.28.04.37.14.15.15.21.41.21.83v5.18s-4.42-6.37-4.42-6.37l-.02-.04h-1.8v.26h.12c.16,0,.28.04.38.14.14.15.21.42.21.84v5.88c0,.42-.07.69-.21.84-.09.09-.22.14-.39.14h-.11v.26h1.83v-.26h-.13c-.16,0-.28-.05-.37-.14-.14-.15-.21-.41-.21-.83v-6.01l4.56,6.53.48.72h.5v-7.12c0-.4.09-.72.21-.84.09-.09.21-.13.38-.13h.13v-.26h-1.83v.26Z"/>
  <path class="cls-1" d="M123.15,66.46h.26l.08-.2c.32-.81.86-1.16,1.81-1.16h.96v6.75c0,.42-.07.69-.21.84-.09.09-.21.14-.38.14h-.12v.26h2.66v-.26h-.12c-.17,0-.28-.04-.38-.14-.14-.15-.21-.41-.21-.83v-6.75h.96c.95,0,1.5.35,1.81,1.16l.08.2h.26v-1.72h-7.44v1.72Z"/>
</svg>