<?xml version="1.0" encoding="UTF-8"?>
<svg id="Layer_1" data-name="Layer 1" xmlns="http://www.w3.org/2000/svg" viewBox="0 0 132 80">
  <defs>
    <style>
      .cls-1 {
        fill: #fff;
      }
    </style>
  </defs>
  <path class="cls-1" d="M42.8,22.02l-.57,3.61.4-.09c2-.45,4.04-.71,6.09-.76h3.03v16.81c0,1.25-.17,2.46-.49,3.48l-.11.36h5.92l-.11-.36c-.32-1.02-.49-2.23-.49-3.48v-16.81h3.03c2.05.05,4.1.3,6.09.76l.4.09-.57-3.61h-22.61Z"/>
  <path class="cls-1" d="M75.62,44.53v-.05c-.08-.21-.14-.43-.18-.65l-.11-1.45v-17.17l.11-1.45c.04-.22.1-.44.17-.65h0c.07-.24.15-.49.22-.74l.1-.35h-5.94l.1.35c.07.26.15.51.22.74h0c.07.22.13.44.17.66l.11,1.44v17.17l-.11,1.45c-.04.22-.1.44-.17.65h0c-.06.2-.13.45-.18.52l-.28.43h6.24l-.28-.43c-.05-.07-.12-.3-.17-.48"/>
  <path class="cls-1" d="M43.35,42.62c-.48-.86-.96-1.79-1.42-2.78l-2.66-6.16-1.03-2.45-4.04-9.28h-.47s-4.27,0-4.27,0l1.3,3.23h0c.39.9.42,1.95.07,2.87l-3.67,10.62-6.75-16.71h-5.09s1.51,3.39,1.51,3.39c.4.89.43,1.93.09,2.85-.01.04-.03.08-.04.11-.01.04-.03.08-.04.11-.97,2.64-2.13,5.6-3.44,8.81l-1.26,3.01v.02c-.1.26-.2.52-.32.76l-.18.39c-.13.29-.23.52-.31.69h0c-.26.62-.56,1.22-.89,1.79-.3.49-.5.84-.65,1.13l-.21.4h5.53l-.67-1.11c-.04-.28-.04-.56,0-.83.19-1.05.5-2.06.91-3.02h0c1.32-3.63,2.44-6.66,3.58-9.72,0-.01.01-.03.02-.04.1-.26.19-.51.29-.76.03-.08.06-.16.09-.24l5.78,15.72h2.71l5.13-15.37c.19.45.39.89.57,1.32.37.86.74,1.72,1.11,2.58.38.89.78,1.81,1.17,2.71l.27.62c.45,1.05.92,2.14,1.39,3.2l.08.2.07.24v.02c.06.09.11.19.15.3h0c.16.34.32.73.5,1.2h0c.18.44.34.89.48,1.33.06.2,0,.49-.08.89-.03.13-.06.27-.08.42l-.06.33h6.62l-.3-.43c-.59-.83-1.08-1.61-1.51-2.38"/>
  <path class="cls-1" d="M5.43,23.74c.04-.22.1-.44.17-.65h0c.07-.25.14-.48.22-.74l.1-.35H0l.1.35c.07.26.15.5.22.73H.32c.07.22.13.44.17.66l.11,1.44v17.07l-.11,1.44c-.04.22-.1.44-.16.65h0c-.07.23-.14.48-.22.74l-.1.35h5.91l-.1-.35c-.06-.19-.11-.37-.17-.58h0s-.05-.17-.05-.17c-.07-.21-.12-.43-.17-.65l-.11-1.44v-17.07l.11-1.44h0Z"/>
  <path class="cls-1" d="M103.08,42.48c-1.22-1.96-2.16-4.11-3.08-6.18-.19-.43-.39-.87-.58-1.3-.34-.75-.67-1.51-1.01-2.26-.17-.38-.34-.76-.51-1.13-.2-.44-.4-.89-.59-1.33-.31-.69-.62-1.38-.93-2.07-.22-.5-.45-1-.67-1.5l-.13-.29c-.24-.55-.5-1.12-.75-1.68l-1.16-2.8h-5.62l.76.8c.25.26.27.32.3.42v.02c.04.15.05.3.05.43-.01.28-.06.56-.14.84l-.02.08c-.02.07-.04.14-.06.2-2.8,6.44-7.29,16.76-7.44,17.05-.3.62-.65,1.22-1.04,1.77-.28.41-.51.73-.7,1l-.59.85h6.48l-1.02-1.38c-.04-.23-.04-.47,0-.7.03-.1.27-.78,2.11-5.26.65-.17,1.31-.27,1.96-.3h5c.66.03,1.33.13,1.99.31.35.74,1.92,4,2.64,5.85.02.26-.07.51-.25.7l-.77.81h7.9s-.62-.79-.62-.79c-.56-.69-1.07-1.41-1.53-2.15M94.39,34.93h-6.33c.7-1.69,2.28-5.53,3.04-7.34l3.29,7.34h0Z"/>
  <path class="cls-1" d="M18.15,57.91v-5.92h1.23c.84,0,1.46.06,1.85.19.39.12.73.32,1.02.59.29.27.51.59.66.98.15.38.23.83.23,1.35s-.12,1-.36,1.45-.56.8-.97,1.03c-.41.23-1,.35-1.77.35h-1.89ZM18.72,57.35h.68c.71,0,1.23-.04,1.55-.11.32-.07.6-.21.84-.42.24-.21.43-.47.55-.77s.19-.65.19-1.04-.07-.75-.22-1.08c-.15-.33-.35-.6-.62-.82-.27-.21-.59-.36-.95-.43-.37-.07-.9-.11-1.61-.11h-.42v4.78h0Z"/>
  <path class="cls-1" d="M27.42,51.99h3.4v.59h-2.8v1.85h2.78v.58h-2.78v2.32h2.78v.59h-3.37v-5.92Z"/>
  <path class="cls-1" d="M34.52,51.99h.64l1.96,4.72,1.99-4.72h.64l-2.58,6.07h-.12l-2.54-6.07Z"/>
  <path class="cls-1" d="M43.89,51.99h3.4v.59h-2.8v1.85h2.78v.58h-2.78v2.32h2.78v.59h-3.37v-5.92Z"/>
  <path class="cls-1" d="M51.43,51.99h.6v5.35h2.27v.57h-2.88v-5.92Z"/>
  <path class="cls-1" d="M58.11,54.97c0-.57.14-1.1.41-1.58.27-.48.65-.86,1.13-1.14.48-.27,1-.41,1.56-.41s1.09.14,1.57.41c.49.27.87.65,1.15,1.13.28.48.42,1,.42,1.57s-.14,1.08-.41,1.57c-.27.48-.65.86-1.13,1.13-.48.27-1,.41-1.57.41s-1.09-.14-1.57-.41c-.48-.27-.86-.65-1.14-1.13-.28-.48-.42-.99-.42-1.55M63.73,54.95c0-.71-.25-1.31-.74-1.8-.49-.49-1.08-.73-1.78-.73s-1.3.25-1.78.74c-.48.49-.71,1.09-.71,1.8s.24,1.3.73,1.79c.49.49,1.08.73,1.77.73s1.28-.24,1.77-.72c.49-.48.73-1.08.73-1.81Z"/>
  <path class="cls-1" d="M68.66,51.99h1.18c.7,0,1.15.03,1.37.08.21.05.41.15.59.29.18.14.32.31.42.52.1.21.15.44.15.69,0,.41-.11.74-.33,1-.22.26-.5.42-.83.49s-.84.1-1.53.1h-.42v2.75h-.59v-5.92h0ZM69.26,52.57v2.02h1c.6.01,1-.09,1.19-.29.2-.21.3-.45.3-.73,0-.67-.48-1-1.44-1h-1.05,0Z"/>
  <path class="cls-1" d="M76.41,57.91l.84-5.92h.09l2.41,4.85,2.39-4.85h.09l.85,5.92h-.59l-.58-4.24-2.09,4.24h-.15l-2.12-4.27-.58,4.27h-.57Z"/>
  <path class="cls-1" d="M87.39,51.99h3.4v.59h-2.8v1.85h2.78v.58h-2.78v2.32h2.78v.59h-3.37v-5.92Z"/>
  <path class="cls-1" d="M94.94,57.91v-5.92h.13l3.93,4.53v-4.53h.59v5.92h-.13l-3.91-4.48v4.48h-.61Z"/>
  <path class="cls-1" d="M103.57,52.57v-.58h3.25v.58h-1.32v5.34h-.6v-5.34h-1.33Z"/>
  <path class="cls-1" d="M110.19,56.8l.5-.3c.35.65.76.97,1.23.97.3,0,.56-.1.78-.29.21-.19.32-.43.32-.72,0-.22-.09-.45-.27-.68s-.48-.5-.9-.82c-.42-.32-.7-.55-.85-.71-.15-.16-.25-.32-.32-.5-.07-.18-.1-.36-.1-.54,0-.38.14-.71.41-.98.27-.27.61-.4,1.03-.4.32,0,.61.08.85.24.24.16.48.4.7.72l-.48.37c-.15-.21-.31-.38-.48-.52-.16-.14-.37-.21-.61-.21s-.43.07-.59.21c-.15.14-.23.32-.23.54s.07.41.2.57c.13.16.44.42.92.77.48.35.82.68,1.04.97.22.3.33.61.33.94,0,.43-.17.8-.5,1.12-.33.32-.72.47-1.16.47-.78,0-1.38-.42-1.81-1.25"/>
  <path class="cls-1" d="M124.51,42.67l-6.46.09-1.84.02.5-.64,15.3-20.12h-22.09l-.87,3.64.43-.09c2.26-.5,4.57-.76,6.88-.78h7.91l-11.46,14.76-4.6,5.89h22.75l.87-3.64-.43.09c-2.26.5-4.57.76-6.88.78Z"/>
</svg>