<?xml version="1.0" encoding="UTF-8"?>
<svg id="Layer_1" data-name="Layer 1" xmlns="http://www.w3.org/2000/svg" viewBox="0 0 132 80">
  <defs>
    <style>
      .cls-1 {
        fill: #fff;
      }
    </style>
  </defs>
  <path class="cls-1" d="M48.75,79.41h-6.65v-20.45l-9.34,20.45h-4.74l-9.34-20.45v20.45h-6.65v-26.96c0-2.72,2.21-4.93,4.93-4.93h.23c1.94,0,3.69,1.13,4.49,2.9l8.71,19.28,8.71-19.28c.8-1.76,2.55-2.9,4.49-2.9h.23c2.72,0,4.93,2.21,4.93,4.93v26.96Z"/>
  <path class="cls-1" d="M66.6,56.23l4.05,10.43h-8.02l3.96-10.43ZM82.55,79.41l-11.67-29.07c-.68-1.7-2.33-2.81-4.16-2.81s-3.47,1.11-4.16,2.81l-11.71,29.07h7.01l2.69-6.88h12.16l2.69,6.88h7.15Z"/>
  <path class="cls-1" d="M98.31,80c-9.29,0-16.62-7.42-16.62-16.53s7.52-16.53,16.67-16.53c6.42,0,11.8,3.1,14.39,8.24l-6.19,3.01c-1.59-3.1-4.56-4.78-8.24-4.78-5.42,0-9.7,4.42-9.7,10.07s4.28,10.11,9.75,10.11c4.23,0,7.52-2.51,8.38-6.15h-8.86v-5.74h13.64c1.41,0,2.55,1.14,2.55,2.55h0c0,8.93-6.65,15.76-15.76,15.76"/>
  <path class="cls-1" d="M43.08,0h6.66v26.08h42.05c-.07-.15-.14-.31-.21-.47-.6-1.41-.93-2.98-.93-4.6h0c0-1.22.19-2.41.53-3.51.35-1.11.85-2.15,1.49-3.1,1.27-1.88,3.07-3.38,5.19-4.28,1.41-.6,2.98-.93,4.6-.93h0c1.21,0,2.4.19,3.51.53,1.11.35,2.15.85,3.1,1.49,1.88,1.27,3.38,3.07,4.28,5.19.6,1.41.93,2.97.93,4.59h0c0,1.23-.19,2.41-.53,3.52-.35,1.11-.85,2.15-1.49,3.1-1.27,1.88-3.07,3.38-5.19,4.28-1.41.6-2.97.93-4.59.93h0s0,0,0,0h-59.38V0ZM12.04,36.49c0-1.07.16-2.12.47-3.1.31-.98.75-1.9,1.31-2.73,1.12-1.66,2.71-2.98,4.58-3.77,1.25-.53,2.62-.82,4.05-.82h11.3v-4.97c0-.4-.05-.79-.13-1.16-.08-.37-.21-.73-.37-1.07-.32-.68-.79-1.28-1.35-1.75-.38-.32-.8-.58-1.24-.77-.6-.26-1.25-.4-1.95-.41h-.02c-.53,0-1.03.08-1.51.23-.47.15-.92.36-1.32.64-.81.55-1.46,1.33-1.84,2.23-.26.6-.4,1.26-.4,1.97v.24h-6.75v-.24c0-1.22.19-2.4.53-3.51.35-1.11.85-2.15,1.49-3.1,1.27-1.88,3.07-3.38,5.19-4.28,1.41-.6,2.98-.93,4.6-.93h.02s.04,0,.06,0c1.21,0,2.38.2,3.48.55,1.11.36,2.15.87,3.09,1.52l-.14.2.14-.2c1.88,1.29,3.35,3.11,4.24,5.23.59,1.42.92,2.97.92,4.59h0v11.73h-18.04c-.39,0-.75.06-1.09.16-.34.11-.66.26-.96.46-.59.4-1.06.96-1.33,1.62-.18.44-.29.91-.29,1.43v5.42h-6.75v-5.42ZM28.15,38.41c0,1.93-1.56,3.49-3.49,3.49s-3.49-1.56-3.49-3.49c0-1.93,1.56-3.49,3.49-3.49s3.49,1.56,3.49,3.49M103.97,25.85c.47-.15.92-.36,1.32-.64.81-.55,1.46-1.33,1.84-2.23.26-.6.4-1.26.4-1.97,0-.53-.08-1.03-.23-1.51-.15-.47-.36-.92-.64-1.32-.55-.81-1.33-1.46-2.23-1.84-.6-.26-1.26-.4-1.97-.4-.53,0-1.03.08-1.51.23-.47.15-.92.36-1.32.64-.81.55-1.46,1.33-1.84,2.23-.25.6-.4,1.26-.4,1.97,0,.53.08,1.03.23,1.51.15.47.36.92.64,1.32.55.81,1.33,1.46,2.23,1.84.6.26,1.26.4,1.97.4.53,0,1.03-.08,1.51-.23"/>
  <path class="cls-1" d="M119.71,75.3c-.17-.38-.39-.71-.67-1-.28-.28-.61-.51-.99-.67-.38-.16-.79-.25-1.22-.25s-.84.08-1.22.25c-.38.16-.71.39-.99.67-.28.28-.51.61-.67,1-.16.38-.25.79-.25,1.22s.08.84.25,1.22c.16.38.39.71.67.99.28.28.61.51.99.67.38.16.79.25,1.22.25s.84-.08,1.22-.25c.38-.16.71-.39.99-.67.28-.28.5-.61.67-.99.17-.38.25-.78.25-1.22s-.08-.84-.25-1.22M119.38,77.61c-.14.33-.34.62-.59.87-.25.25-.55.45-.88.59-.34.15-.69.22-1.07.22s-.74-.07-1.07-.22c-.33-.14-.62-.34-.87-.59-.25-.25-.45-.54-.59-.87-.14-.33-.22-.69-.22-1.07s.07-.73.22-1.07c.14-.34.34-.63.59-.88.25-.25.54-.45.87-.59.33-.14.69-.21,1.07-.21s.73.07,1.07.21c.34.14.63.34.88.59.25.25.45.55.59.88.14.34.22.69.22,1.07s-.07.74-.22,1.07"/>
  <path class="cls-1" d="M117.8,76.54c.12-.15.18-.35.18-.61,0-.3-.08-.52-.23-.68-.15-.15-.37-.23-.66-.23h-1.29v3h.4v-1.18h.69l.65,1.18h.46l-.69-1.2c.21-.03.37-.13.49-.28M116.2,76.5v-1.14h1.01c.22,0,.33.11.33.33v.47c0,.09-.03.17-.08.24s-.14.1-.25.1h-1.01Z"/>
</svg>