<?xml version="1.0" encoding="UTF-8"?>
<svg id="Layer_1" data-name="Layer 1" xmlns="http://www.w3.org/2000/svg" viewBox="0 0 132 80">
  <defs>
    <style>
      .cls-1 {
        fill: #fff;
      }
    </style>
  </defs>
  <g id="g3017">
    <g id="g3019">
      <g id="g3021">
        <g id="g3027">
          <g id="g3033">
            <g id="g3035">
              <path id="path3041" class="cls-1" d="M41,45.69h0l-2.2,4.63-2.2-4.63h-1.32v6.2h1.1v-4.22l1.98,4.22h.88l1.98-4.16v4.16h1.03v-6.2h-1.24Z"/>
            </g>
          </g>
          <g id="g3043">
            <g id="g3045">
              <path id="path3051" class="cls-1" d="M46.56,45.69h0l-2.78,6.2h1.24l2.12-4.84.88,2.04h-1.1l-.37.95h1.9l.81,1.84h1.32l-2.86-6.2h-1.17Z"/>
            </g>
          </g>
          <g id="g3053">
            <g id="g3055">
              <path id="path3061" class="cls-1" d="M52.71,50.05h0c0,.61-.29.89-1.1.89h-.22v.95h.22c1.9,0,2.34-1.02,2.34-1.84v-4.36h-1.24s0,4.36,0,4.36Z"/>
            </g>
          </g>
          <g id="g3063">
            <g id="g3065">
              <path id="path3071" class="cls-1" d="M56.3,51.89h1.17v-6.2h-1.17v6.2Z"/>
            </g>
          </g>
          <g id="g3073">
            <g id="g3075">
              <path id="path3081" class="cls-1" d="M62.3,45.69h-2.49v6.2h2.49c2.2,0,3.29-1.09,3.29-3.27,0-1.98-1.1-2.93-3.29-2.93ZM62.3,50.93h-1.32v-4.29h1.32c1.46,0,2.12.61,2.12,1.98,0,1.57-.66,2.32-2.12,2.32Z"/>
            </g>
          </g>
          <g id="g3083">
            <g id="g3085">
              <path id="path3091" class="cls-1" d="M72.92,45.69h0l-2.86,6.2h1.24l2.12-4.84.95,2.04h-1.17l-.37.95h1.9l.88,1.84h1.24l-2.86-6.2h-1.1Z"/>
            </g>
          </g>
          <g id="g3093">
            <g id="g3095">
              <path id="path3101" class="cls-1" d="M78.41,45.69h0v6.2h4.47v-.95h-3.29v-5.25h-1.17Z"/>
            </g>
          </g>
          <g id="g3103">
            <g id="g3105">
              <path id="path3111" class="cls-1" d="M87.85,45.69h0v6.2h1.17v-2.66h3.15v-.95h-3.15v-1.63h3.29v-.95h-4.47,0Z"/>
            </g>
          </g>
          <g id="g3113">
            <g id="g3115">
              <path id="path3121" class="cls-1" d="M98.4,49.43h0c0,1.02-.52,1.57-1.61,1.57-1.17,0-1.68-.54-1.68-1.57v-3.75h-1.17v3.75c0,1.63.95,2.52,2.86,2.52s2.78-.89,2.78-2.52v-3.75h-1.17v3.75h0Z"/>
            </g>
          </g>
          <g id="g3123">
            <g id="g3125">
              <path id="path3131" class="cls-1" d="M101.18,45.69h0v.95h2.05v5.25h1.17v-5.25h1.98v-.95h-5.2,0Z"/>
            </g>
          </g>
          <g id="g3133">
            <g id="g3135">
              <path id="path3141" class="cls-1" d="M107.55,45.69h0v.95h1.98v5.25h1.17v-5.25h1.97v-.95h-5.12,0Z"/>
            </g>
          </g>
          <g id="g3143">
            <g id="g3145">
              <path id="path3151" class="cls-1" d="M115.89,45.69h0l-2.85,6.2h1.24l2.13-4.84.96,2.04h-1.18l-.29.95h1.91l.8,1.84h1.25l-2.78-6.2h-1.18Z"/>
            </g>
          </g>
          <g id="g3153">
            <g id="g3155">
              <path id="path3161" class="cls-1" d="M121.52,51.89h1.17v-6.2h-1.17v6.2Z"/>
            </g>
          </g>
          <g id="g3163">
            <g id="g3165">
              <path id="path3171" class="cls-1" d="M130.67,45.69h0l-2.12,4.63-2.19-4.63h-1.32v6.2h1.09v-4.22l1.98,4.22h.88l1.9-4.16v4.16h1.1v-6.2h-1.33,0Z"/>
            </g>
          </g>
          <g id="g3173">
            <g id="g3175">
              <path id="path3181" class="cls-1" d="M48.17,43.58h1.17v-1.23h-1.17v1.23Z"/>
            </g>
          </g>
          <g id="g3183">
            <g id="g3185">
              <path id="path3191" class="cls-1" d="M51.47,42.35h-1.24v1.23h1.24v-1.23Z"/>
            </g>
          </g>
          <g id="g3193">
            <g id="g3195">
              <path id="path3201" class="cls-1" d="M76.65,33.15h-1.17v1.29h1.17v-1.29Z"/>
            </g>
          </g>
          <g id="g3203">
            <g id="g3205">
              <path id="path3211" class="cls-1" d="M89.24,39.29h0v-5.25h-1.17v4.9c0,.48,0,.82-.15.95-.07.27-.37.34-.8.34h-9.08c-.29,0-.51,0-.73-.14.37-.2.66-.48.95-.88.29-.41.44-.89.44-1.43,0-.61-.22-1.16-.66-1.63-.51-.48-1.17-.75-2.05-.75-.8,0-1.46.27-1.98.75-.44.41-.66,1.02-.66,1.63,0,.54.15,1.02.44,1.43.22.41.59.68.95.88-.22.14-.51.14-.73.14h-7.39v-.34c0-2.52-1.03-3.75-3-3.75-1.32,0-2.71.88-3.59,2.32l.22-4.43h-1.24v6.2h-7.69c.07-.27.07-.61.07-.95v-3.13h-1.1v2.79c0,.48-.07.82-.15.95-.15.27-.44.34-.88.34h-3.51c-1.1,0-1.83-.61-1.9-1.57-.15-1.64-1.1-2.52-2.56-2.52h-3.37c-1.76,0-2.64,1.02-2.64,3.13v3.75h1.17v-3.75c0-1.36.59-2.18,1.46-2.18h1.24c-.37.48-.51.95-.51,1.63,0,1.57,1.03,2.52,2.56,2.52.95,0,1.68-.34,2.12-1.02.44.75,1.32,1.09,2.49,1.09h27.45c.73,0,1.17,0,1.39-.07.44-.07.88-.2,1.39-.48.44.27.88.41,1.32.48.22.07.66.07,1.32.07h8.71c.8,0,1.83-.34,1.83-2.04h0ZM75.99,36.42h0c.44,0,.81.14,1.1.34.22.27.37.54.37.95,0,.34-.15.68-.37,1.02-.29.34-.59.61-1.03.75-.51-.14-.88-.41-1.1-.75-.22-.34-.37-.68-.37-1.02,0-.82.59-1.29,1.39-1.29ZM65.38,39.76h0v.48h-5.27c.59-1.64,2.2-3.13,3.51-3.13,1.1,0,1.76,1.02,1.76,2.66ZM41.22,40.24h0c-.73,0-1.24-.55-1.24-1.5,0-1.02.51-1.57,1.32-1.57.73,0,1.17.54,1.17,1.5,0,1.43-.66,1.57-1.24,1.57Z"/>
            </g>
          </g>
          <g id="g3213">
            <g id="g3215">
              <path id="path3221" class="cls-1" d="M92.39,34.04h-1.17v7.29h1.17v-7.29Z"/>
            </g>
          </g>
          <g id="g3223">
            <g id="g3225">
              <path id="path3231" class="cls-1" d="M112.96,40.1h0c0-2.32-1.53-3.81-3.95-3.81-1.32,0-2.34.41-3,1.16l-.07.14.07.14c.37.34.59.54.73.61l.15.2.15-.2c.37-.68,1.02-1.02,1.98-1.02,1.69,0,2.63.95,2.63,2.72v.2h-10.69c-.21-2.73-1.53-4.09-4.02-4.09h-.15v1.02h.44c.95.07,1.53.41,1.97,1.02.37.48.52,1.23.59,2.04h-4.54v1.09h17.71v-1.23h0Z"/>
            </g>
          </g>
          <g id="g3233">
            <g id="g3235">
              <path id="path3241" class="cls-1" d="M109.82,42.28h-1.18v1.29h1.18v-1.29Z"/>
            </g>
          </g>
          <g id="g3243">
            <g id="g3245">
              <path id="path3251" class="cls-1" d="M115.96,41.33h11.42c.44.61,1.17.95,2.05.95.8,0,1.46-.27,1.9-.82.44-.48.66-1.09.66-1.77,0-.82-.22-1.43-.66-1.84-.44-.54-1.1-.75-1.9-.75s-1.46.2-1.9.68c-.44.54-.73,1.16-.73,1.91,0,.2.07.34.07.55h-10.76c-.22-.07-.44-.14-.52-.27-.15-.2-.21-.48-.21-.95v-4.97h-1.17v5.45c0,.61.21,1.02.59,1.36.29.34.65.48,1.17.48h0ZM129.43,41.26h0c-.44,0-.73-.14-.96-.48-.21-.27-.36-.61-.36-1.09s.15-.82.36-1.16c.22-.27.52-.48,1.02-.48.44,0,.73.14.96.48.15.27.21.61.21,1.02,0,1.16-.36,1.7-1.24,1.7Z"/>
            </g>
          </g>
          <g id="g3253">
            <g id="g3255">
              <path id="path3261" class="cls-1" d="M13.91,28.52h0c-.59.2-1.1.41-1.98.89-3.44,1.98-4.98,5.65-5.12,9.2v.61h0v12.67h4.47v-12.53c0-.82.37-1.5,1.02-1.98l1.76,1.98,1.76-1.98c.59.48.95,1.16.95,1.98v12.53h4.47v-12.53c0-3.75-3.22-6.74-7.17-6.74-.95,0-1.9.2-2.71.48h0c.95-.95,2.34-1.5,3.81-1.5h0c.51,0,.95,0,1.46.07,3.95.61,6.96,3.75,6.96,7.42.07.14.07.27.07.48v12.33h4.47v-12.47c0-5.38-3.51-9.74-9.44-10.97-.22-.07-.59-.14-.88-.14-.44-.07-.95-.14-1.39-.14-.95,0-1.68.2-2.49.34ZM13.03,28.05h0c-7.69,0-13.03,4.77-13.03,11.17v12.67h4.47v-12.67c0-5.93,4.83-10.22,9.74-11.1.15,0,.44-.07.15-.07h-1.32Z"/>
            </g>
          </g>
        </g>
      </g>
    </g>
  </g>
</svg>