<?xml version="1.0" encoding="UTF-8"?>
<svg id="Layer_1" data-name="Layer 1" xmlns="http://www.w3.org/2000/svg" viewBox="0 0 132 80">
  <defs>
    <style>
      .cls-1 {
        fill: #fff;
      }
    </style>
  </defs>
  <path class="cls-1" d="M5.45,22.91c7.44-.02,14.88,0,22.32-.01,0,1.04,0,2.08,0,3.12-7.44,0-14.88.02-22.31-.01.01-1.03.01-2.07,0-3.1Z"/>
  <path class="cls-1" d="M0,28.38c1.03,0,2.05.01,3.08,0,.02,7.46.01,14.93,0,22.39-1.03-.01-2.06-.01-3.09,0v-22.38Z"/>
  <path class="cls-1" d="M30.12,28.43c1.04-.02,2.07-.07,3.1-.06.02,7.46.01,14.92,0,22.38-1.04,0-2.07,0-3.11,0,.02-7.44.02-14.88,0-22.32Z"/>
  <path class="cls-1" d="M124.04,31.74c1.97-.21,4.1-.09,5.82.99.92.57,1.53,1.51,1.88,2.51-.9.38-1.8.77-2.68,1.19-.45-1.04-1.33-1.96-2.5-2.11-1.13-.13-2.37-.18-3.39.38-1.02.52-.88,2.23.15,2.65,2.47.97,5.54.54,7.58,2.5,1.34,1.28,1.38,3.48.49,5.02-.79,1.4-2.35,2.17-3.87,2.46-1.2.18-2.43.18-3.63.04-1.95-.24-3.82-1.24-4.96-2.86.75-.66,1.5-1.34,2.19-2.06.95,1.41,2.57,2.34,4.28,2.37,1.06.03,2.38.01,3.03-.98.51-.68.33-1.68-.3-2.21-.62-.44-1.39-.58-2.13-.71-1.72-.31-3.53-.51-5.04-1.44-1.83-1.07-2.12-3.73-1.05-5.44.88-1.42,2.55-2.11,4.14-2.32Z"/>
  <path class="cls-1" d="M7.49,32.01c1.03-.02,2.06,0,3.09-.01-.01,5.04-.01,10.09,0,15.13-1.03-.02-2.06,0-3.09-.02.04-5.03.03-10.07,0-15.1Z"/>
  <path class="cls-1" d="M15.07,32c1.04.01,2.08,0,3.13,0-.01,5.04-.02,10.08,0,15.12-1.04,0-2.09,0-3.13,0,0-5.04,0-10.08,0-15.12Z"/>
  <path class="cls-1" d="M22.69,32c1.03.01,2.05,0,3.08,0,0,5.04,0,10.08,0,15.13-1.03-.02-2.06-.02-3.09,0,.02-5.04,0-10.08,0-15.12Z"/>
  <path class="cls-1" d="M40.07,32.01c1.24-.02,2.49.03,3.73-.02,1.44,3.79,2.87,7.6,4.2,11.43,1.51-3.78,2.84-7.64,4.35-11.43,1.21.03,2.43.02,3.65.01-.01,5.04-.02,10.08,0,15.12-.97-.01-1.95-.02-2.92,0,.1-3.44.03-6.88.05-10.31-1.33,3.42-2.57,6.88-3.87,10.31-.83-.02-1.65-.02-2.48,0-1.28-3.43-2.66-6.82-3.82-10.28-.1,3.42-.03,6.86-.03,10.28-.96-.01-1.91,0-2.87-.01.03-5.03.01-10.07,0-15.1Z"/>
  <path class="cls-1" d="M58.96,32.01c3.65,0,7.3,0,10.95,0-.02.9-.02,1.8,0,2.71-2.61,0-5.22,0-7.83,0,0,1.09.01,2.18,0,3.27,2.43.02,4.85.01,7.28,0,.02.91.01,1.81.01,2.72-2.43,0-4.87-.02-7.3,0,.02,1.23,0,2.46,0,3.7,2.65.02,5.31.02,7.96,0-.01.9,0,1.8,0,2.71-3.69-.03-7.39,0-11.08-.02.03-5.03.02-10.06,0-15.09Z"/>
  <path class="cls-1" d="M72.89,32c2.07.02,4.13,0,6.2.02,1.5.08,3.09.34,4.27,1.34,1.41,1.2,1.62,3.3,1.12,4.98-.29,1.11-1.21,1.91-2.19,2.42,1.09,2.12,2.17,4.24,3.24,6.36-1.15-.01-2.31-.01-3.46,0-.98-1.89-1.83-3.85-2.89-5.7-1.06.05-2.13.02-3.19.02,0,1.89-.02,3.78.01,5.66-1.04.01-2.08,0-3.12.02.02-5.04,0-10.09,0-15.13ZM75.99,34.6c-.02,1.41,0,2.82-.02,4.23,1.43-.08,2.9.19,4.3-.2,1.68-.43,1.72-3.3.05-3.76-1.4-.41-2.89-.22-4.33-.27Z"/>
  <path class="cls-1" d="M86.66,47.11c2.03-5.03,3.99-10.09,6.01-15.11,1.05.02,2.1.02,3.14,0,2.02,5.03,3.97,10.1,6.01,15.12-1.13,0-2.26,0-3.39,0-.42-1.15-.85-2.3-1.27-3.45-1.99,0-3.99,0-5.98,0-.42,1.15-.84,2.31-1.27,3.46-1.09-.02-2.17,0-3.26,0ZM92.13,41.08c1.37-.04,2.74-.04,4.11,0-.66-1.89-1.37-3.77-2.11-5.64-.6,1.91-1.39,3.74-2.01,5.64Z"/>
  <path class="cls-1" d="M108.9,32.01c1.06,0,2.12,0,3.18,0,2,5.04,3.97,10.09,6,15.12-1.13-.01-2.26-.01-3.38,0-.4-1.16-.86-2.29-1.26-3.45-2,0-3.99,0-5.99,0-.45,1.14-.84,2.31-1.28,3.45-1.09-.01-2.17-.01-3.26,0,2.01-5.03,4-10.08,5.99-15.12ZM108.36,41.04c1.38.06,2.77-.07,4.14.05-.67-1.91-1.42-3.79-2.11-5.7-.61,1.91-1.34,3.77-2.04,5.65Z"/>
  <path class="cls-1" d="M5.45,53.13c7.44-.03,14.88,0,22.32-.01.01,1.03-.01,2.07,0,3.1-7.44,0-14.88.01-22.32,0,.01-1.02.01-2.05,0-3.08Z"/>
</svg>