<?xml version="1.0" encoding="UTF-8"?>
<svg id="Layer_1" data-name="Layer 1" xmlns="http://www.w3.org/2000/svg" viewBox="0 0 132 80">
  <defs>
    <style>
      .cls-1 {
        fill: #fff;
      }
    </style>
  </defs>
  <path id="Nakheel_Brandmark_English_RGB_DeepNavy" data-name="Nakheel Brandmark English RGB DeepNavy" class="cls-1" d="M15.15,28.55h5.27v22.91h-10.24l-4.91-22.71v22.71H0v-22.91h10.28l4.88,22.71v-22.71ZM37.27,28.55h-10.34l-4.81,22.91h5.2l.95-4.55h7.66l.95,4.55h5.2l-4.81-22.91ZM29.16,42.82l2.95-14.07,2.95,14.07h-5.89ZM54.22,42.26l7.89-13.71h-5.86l-6.64,11.58v-11.58h-5.82v22.91h5.83v-8.8h3.6l3.04,8.8h5.89l-3.17-9.19h-4.75ZM76.37,37.48h-3.99l-2.62,4.22v-13.16h-5.82v22.91h5.83v-9.49h6.61v9.49h5.83v-22.91h-5.83v8.93h0ZM85.01,51.46h14.5v-4.25h-8.67v-5.34h6.94v-4.25h-4.48l-2.45,3.93v-8.74h8.67v-4.25h-14.5v22.91h0ZM101.8,51.46h14.49v-4.25h-8.67v-5.34h6.94v-4.25h-4.48l-2.45,3.93v-8.74h8.67v-4.25h-14.5v22.91h0ZM124.41,47.2v-18.65h-5.83v22.91h13.42v-4.25h-7.59,0Z"/>
</svg>