<?xml version="1.0" encoding="UTF-8"?>
<svg id="Layer_1" data-name="Layer 1" xmlns="http://www.w3.org/2000/svg" viewBox="0 0 132 80">
  <defs>
    <style>
      .cls-1 {
        fill: #fffffe;
      }
    </style>
  </defs>
  <path class="cls-1" d="M42.36,31.49h-3.39c-.51,1.58-3.37,6.45-5.47,9.82-2.17-3.37-5.1-8.24-5.64-9.82h-3.39c.37,1.7.39,5.67.39,8.51s-.02,6.81-.39,8.51h3.29c-.34-1.62-.39-8.82-.39-12.51,2.12,3.22,4.17,6.62,5.59,9.14h.9c1.37-2.55,3.46-5.94,5.59-9.19,0,3.66-.05,10.91-.39,12.56h3.29c-.37-1.7-.39-5.67-.39-8.51s.03-6.81.39-8.51M0,40.07c0,5.02,3.76,8.73,8.81,8.73s8.96-3.81,8.96-8.87-3.76-8.73-8.81-8.73S0,35.01,0,40.07ZM2.83,39.71c0-3.81,2.32-6.33,5.81-6.33,3.93,0,6.29,3.15,6.29,6.91s-2.32,6.33-5.81,6.33c-3.93,0-6.29-3.15-6.29-6.91ZM49.92,48.51h3.29c-.34-1.6-.39-8.1-.39-12.58,3.59,4.22,7.1,8.29,9.76,12.58h2.9c-.37-1.87-.42-5.65-.42-8.51s.05-6.81.42-8.51h-3.29c.34,1.6.39,8.1.39,12.58-3.59-4.24-7.1-8.39-9.76-12.58h-2.9c.37,1.7.39,5.67.39,8.51s-.02,6.81-.39,8.51ZM73.05,48.51h3.29c-.37-1.7-.39-5.65-.39-8.48s.02-6.83.39-8.53h-3.29c.37,1.7.39,5.7.39,8.53s-.02,6.79-.39,8.48ZM81.86,31.49c1.42,1.7,4.15,5.99,6.88,10.72v2.3c0,1.45-.02,2.88-.27,4h3.27c-.24-1.12-.27-2.54-.27-4v-2.3c2.73-4.73,5.44-9.02,6.88-10.72h-3.54c-.39,1.72-2.93,5.82-4.51,8.32-1.64-2.5-4.25-6.59-4.66-8.32h-3.78ZM98.99,48.51h3.54c.24-1.72,3.34-8.12,5.12-11.76,1.81,3.64,4.98,10.03,5.22,11.76h3.78c-1.17-1.7-5.32-9.92-8.83-17.31-3.51,7.39-7.47,15.61-8.83,17.31ZM117.65,34.3c1.71-.36,3.71-.39,5.9-.39,0,4.85-.02,12.9-.39,14.59h3.32c-.37-1.7-.39-9.74-.39-14.59,2.2,0,4.2.02,5.9.39v-2.81h-14.35v2.81h0Z"/>
</svg>