<?xml version="1.0" encoding="UTF-8"?>
<svg id="Layer_1" data-name="Layer 1" xmlns="http://www.w3.org/2000/svg" viewBox="0 0 132 80">
  <defs>
    <style>
      .cls-1 {
        fill: #fff;
      }
    </style>
  </defs>
  <g>
    <path class="cls-1" d="M40.8,21.3c0-6.71-3.39-11.36-10.28-11.36-13.36,0-24,17.65-24,29.92,0,6.95,3.38,12.15,11.06,12.15,15.23,0,23.21-20.43,23.21-30.71M18.8,53.34C6.41,53.34,0,45.06,0,35.87,0,23.18,12.33,8.61,28.9,8.61c12.88,0,18.5,8.83,18.5,17.47,0,12.63-12.15,27.26-28.59,27.26"/>
    <polygon class="cls-1" points="109.83 46.93 132 46.93 132 51.88 104.28 51.88 104.28 10.07 131.5 10.07 131.5 15.02 109.83 15.02 109.83 27.84 131.12 27.84 131.12 32.79 109.83 32.79 109.83 46.93"/>
    <polygon class="cls-1" points="87.52 10.07 93.07 10.07 93.07 51.88 81.58 51.88 62.71 10.29 62.71 51.88 57.16 51.88 57.16 10.07 68.65 10.07 87.52 51.66 87.52 10.07"/>
  </g>
  <g>
    <path class="cls-1" d="M7.21,70.5h1.51c1.81,0,2.87-1.24,2.87-3.34s-1.06-3.35-2.87-3.35h-1.51v6.69ZM6.26,71.28v-8.25h2.39c2.46,0,3.93,1.54,3.93,4.13s-1.46,4.13-3.93,4.13h-2.39Z"/>
    <polygon class="cls-1" points="19.61 70.5 24.09 70.5 24.09 71.28 18.66 71.28 18.66 63.03 23.97 63.03 23.97 63.81 19.61 63.81 19.61 66.63 23.58 66.63 23.58 67.41 19.61 67.41 19.61 70.5"/>
    <polygon class="cls-1" points="35.15 63.03 36.15 63.03 33.57 71.28 31.81 71.28 29.24 63.03 30.28 63.03 32.7 71.19 32.72 71.19 35.15 63.03"/>
    <polygon class="cls-1" points="42.82 70.5 47.3 70.5 47.3 71.28 41.87 71.28 41.87 63.03 47.18 63.03 47.18 63.81 42.82 63.81 42.82 66.63 46.78 66.63 46.78 67.41 42.82 67.41 42.82 70.5"/>
    <polygon class="cls-1" points="54.25 70.48 58.05 70.48 58.05 71.28 53.3 71.28 53.3 63.03 54.25 63.03 54.25 70.48"/>
    <path class="cls-1" d="M69.09,67.15c0-2.15-.97-3.42-2.6-3.42s-2.59,1.27-2.59,3.42.95,3.42,2.59,3.42,2.6-1.27,2.6-3.42M62.91,67.15c0-2.67,1.34-4.24,3.58-4.24s3.58,1.57,3.58,4.24-1.33,4.24-3.58,4.24-3.58-1.57-3.58-4.24"/>
    <path class="cls-1" d="M79.06,67.23c1.09,0,1.74-.65,1.74-1.72s-.64-1.71-1.73-1.71h-1.94v3.42h1.93ZM79.02,63.03c1.74,0,2.77.93,2.77,2.49s-1.03,2.5-2.78,2.5h-1.87v3.27h-.95v-8.25h2.83Z"/>
    <polygon class="cls-1" points="96.01 63.03 96.27 71.28 95.31 71.28 95.07 63.12 95.05 63.12 92.69 71.28 90.97 71.28 88.72 63.12 88.7 63.12 88.46 71.28 87.56 71.28 87.8 63.03 89.67 63.03 91.84 71.19 91.87 71.19 94.15 63.03 96.01 63.03"/>
    <polygon class="cls-1" points="103.66 70.5 108.15 70.5 108.15 71.28 102.71 71.28 102.71 63.03 108.02 63.03 108.02 63.81 103.66 63.81 103.66 66.63 107.63 66.63 107.63 67.41 103.66 67.41 103.66 70.5"/>
    <polygon class="cls-1" points="119.32 63.03 120.22 63.03 120.22 71.28 118.55 71.28 115.06 63.12 115.04 63.12 115.07 71.28 114.15 71.28 114.15 63.03 115.84 63.03 119.32 71.19 119.34 71.19 119.32 63.03"/>
    <polygon class="cls-1" points="125.96 63.03 125.96 63.81 128.5 63.81 128.5 71.28 129.46 71.28 129.46 63.81 132 63.81 132 63.03 125.96 63.03"/>
  </g>
</svg>