<?xml version="1.0" encoding="UTF-8"?>
<svg id="Layer_1" data-name="Layer 1" xmlns="http://www.w3.org/2000/svg" viewBox="0 0 132 80">
  <defs>
    <style>
      .cls-1 {
        fill: #fff;
      }
    </style>
  </defs>
  <g>
    <path class="cls-1" d="M65.4,47.48c-.76,1.65-1.9,2.92-3.41,3.82-1.51.9-3.47,1.35-5.87,1.35h-6.56v-19.29h2.21c1,0,1.93.24,2.78.71s1.56,1.15,2.13,2.02c.57.87.94,1.91,1.09,3.11h1.03v-12.51h-1.03c-.16,1.2-.52,2.22-1.09,3.05-.57.83-1.28,1.47-2.13,1.91-.85.44-1.78.66-2.78.66h-2.21V14.38h7.09c2.05,0,3.77.43,5.14,1.29,1.37.86,2.42,2.04,3.15,3.55.73,1.51,1.17,3.22,1.33,5.14h1.03v-11.03h-29.39v1.05h4.74v38.27h-4.74v1.05h29.92v-12.11h-1.03c-.16,2.28-.62,4.24-1.38,5.89"/>
    <path class="cls-1" d="M98.16,47.48c-.76,1.65-1.9,2.92-3.41,3.82-1.51.9-3.47,1.35-5.87,1.35h-6.56v-19.29h2.21c1,0,1.93.24,2.78.71s1.56,1.15,2.13,2.02c.57.87.94,1.91,1.09,3.11h1.03v-12.51h-1.03c-.16,1.2-.52,2.22-1.09,3.05-.57.83-1.28,1.47-2.13,1.91-.85.44-1.78.66-2.78.66h-2.21V14.38h7.09c2.05,0,3.77.43,5.14,1.29,1.37.86,2.42,2.04,3.15,3.55.73,1.51,1.17,3.22,1.33,5.14h1.03v-11.03h-29.39v1.05h4.74v38.27h-4.74v1.05h29.92v-12.11h-1.03c-.16,2.28-.62,4.24-1.38,5.89"/>
    <path class="cls-1" d="M103.29,13.33v1.05h4.74v38.27h-4.74v1.05h16.91v-1.05h-5.24v-18.51h1.61c1.42,0,2.61.23,3.57.7.96.47,1.7,1.13,2.22,1.99.53.86.87,1.89,1.03,3.09h1.03v-12.3h-1.03c-.16,1.2-.5,2.21-1.03,3.03-.53.82-1.27,1.43-2.22,1.84-.96.41-2.15.62-3.57.62h-1.61V14.38h6.85c2,0,3.65.43,4.94,1.29,1.29.86,2.28,2.05,2.96,3.55.68,1.51,1.11,3.22,1.26,5.14h1.03v-11.03h-28.71Z"/>
    <path class="cls-1" d="M17.22,14.36c1.69,0,3.11.33,4.27.98,1.16.65,2.03,1.64,2.62,2.97.59,1.33.88,3.01.88,5.03s-.29,3.7-.88,5.03c-.59,1.33-1.46,2.32-2.62,2.97-1.16.65-2.58.98-4.27.98h-4.85V14.36h4.85ZM30.67,51.87s0,0,0,0c-.29-.32-.48-.65-.48-.65-.33-.71-.53-1.66-.58-2.84-.05-1.19-.08-2.47-.1-3.88-.02-1.39-.15-2.8-.38-4.19-.24-1.39-.72-2.69-1.45-3.87-.73-1.18-1.81-2.13-3.26-2.85-.04-.02-.07-.04-.1-.05-.74-.36-1.62-.62-2.62-.79,1.46-.16,2.79-.41,3.97-.78,2.11-.64,3.72-1.67,4.83-3.08,1.12-1.41,1.67-3.26,1.67-5.55s-.59-4.17-1.78-5.65c-1.18-1.48-2.84-2.58-4.97-3.29-2.12-.71-4.59-1.07-7.4-1.07H0v1.03h5.48v38.32H0v1.03h17.88v-1.03h-5.51v-19.15h5.46c.54,0,1.08.13,1.53.41,0,0,0,0,0,0,.91.58,1.57,1.36,1.96,2.34.39.98.64,2.08.75,3.3.1,1.22.17,2.47.18,3.78.02,1.29.08,2.56.21,3.77.13,1.22.41,2.31.86,3.3.45.98,1.14,1.76,2.09,2.34,1.13.69,2.51.82,3.56.86.14,0,.26.01.39.01,1.44.04,2.81.06,4.08.06.59,0,1.16.01,1.71,0v-1.05c-.9,0-1.8-.02-2.7-.03-.67,0-1.34-.25-1.8-.76"/>
  </g>
  <g>
    <polygon class="cls-1" points="9.32 66.59 9.32 61.08 10.03 61.08 10.03 65.97 12.41 65.97 12.41 66.59 9.32 66.59"/>
    <path class="cls-1" d="M16.43,66.67c-.41,0-.76-.06-1.05-.18-.29-.12-.51-.31-.67-.57-.15-.26-.23-.61-.23-1.04v-3.81h.7v3.83c0,.4.11.7.33.87.22.18.52.27.92.27.42,0,.73-.09.95-.27.22-.18.33-.47.33-.87v-3.83h.7v3.81c0,.43-.08.77-.23,1.03-.15.26-.38.45-.67.57-.3.12-.66.18-1.08.18"/>
    <polygon class="cls-1" points="20.6 66.59 22.27 63.9 20.6 61.08 21.38 61.08 22.71 63.37 24.06 61.08 24.81 61.08 23.14 63.86 24.8 66.59 24.02 66.59 22.7 64.37 21.35 66.59 20.6 66.59"/>
    <path class="cls-1" d="M28.93,66.67c-.41,0-.76-.06-1.05-.18-.29-.12-.51-.31-.67-.57-.15-.26-.23-.61-.23-1.04v-3.81h.7v3.83c0,.4.11.7.33.87.22.18.52.27.92.27.42,0,.73-.09.95-.27.22-.18.33-.47.33-.87v-3.83h.7v3.81c0,.43-.08.77-.23,1.03-.15.26-.38.45-.67.57-.3.12-.66.18-1.08.18"/>
    <path class="cls-1" d="M34.31,63.92h1.37c.26,0,.47-.05.63-.15.16-.1.27-.23.34-.41.07-.17.1-.37.1-.59,0-.37-.09-.64-.26-.82-.18-.18-.45-.27-.82-.27h-1.36v2.24ZM33.61,66.59v-5.51h2.06c.4,0,.73.06,1,.18.27.12.47.3.6.55.14.25.2.57.2.97s-.08.74-.24,1.02c-.16.27-.41.47-.74.59l1.02,2.21h-.77l-.94-2.06h-1.49v2.06h-.7Z"/>
    <polygon class="cls-1" points="40.92 66.59 40.92 64.31 39.18 61.08 39.96 61.08 41.26 63.6 42.58 61.08 43.36 61.08 41.62 64.31 41.62 66.59 40.92 66.59"/>
    <path class="cls-1" d="M49.42,65.98h1.29c.28,0,.51-.06.69-.18.18-.12.31-.28.41-.49s.17-.44.21-.71c.04-.26.06-.54.06-.84s-.02-.56-.06-.81c-.04-.25-.11-.47-.21-.65s-.24-.33-.41-.44c-.18-.1-.41-.16-.68-.16h-1.29v4.28ZM48.71,66.59v-5.51h1.99c.41,0,.75.07,1.02.2.27.13.48.31.64.55.16.23.27.51.34.84.07.33.1.69.1,1.09s-.03.77-.1,1.11c-.06.34-.17.64-.33.9-.16.26-.37.46-.64.6s-.61.22-1.02.22h-2Z"/>
    <polygon class="cls-1" points="55.3 66.59 55.3 61.08 58.71 61.08 58.71 61.69 56.01 61.69 56.01 63.49 58.23 63.49 58.23 64.1 56.01 64.1 56.01 65.98 58.71 65.98 58.71 66.59 55.3 66.59"/>
    <polygon class="cls-1" points="62.11 66.59 60.69 61.08 61.42 61.08 62.63 65.95 63.05 65.95 64.26 61.08 64.99 61.08 63.59 66.59 62.11 66.59"/>
    <polygon class="cls-1" points="67.26 66.59 67.26 61.08 70.67 61.08 70.67 61.69 67.96 61.69 67.96 63.49 70.19 63.49 70.19 64.1 67.96 64.1 67.96 65.98 70.67 65.98 70.67 66.59 67.26 66.59"/>
    <polygon class="cls-1" points="73.11 66.59 73.11 61.08 73.82 61.08 73.82 65.97 76.2 65.97 76.2 66.59 73.11 66.59"/>
    <path class="cls-1" d="M80.28,66.05c.41,0,.72-.08.93-.24.21-.16.36-.4.43-.72.08-.32.12-.74.12-1.24s-.04-.89-.12-1.22c-.08-.34-.23-.59-.44-.77-.21-.18-.52-.26-.93-.26s-.71.09-.92.26c-.21.18-.36.43-.43.76s-.12.74-.12,1.23.04.89.12,1.21c.08.32.22.57.43.73.21.17.52.25.93.25M80.28,66.67c-.58,0-1.02-.11-1.34-.32-.32-.21-.54-.52-.67-.94-.13-.42-.19-.94-.19-1.55s.07-1.13.2-1.56c.13-.43.36-.75.68-.97s.76-.34,1.33-.34,1.02.11,1.34.33c.32.22.54.55.67.97.13.43.2.95.2,1.56s-.06,1.16-.19,1.57c-.13.42-.35.73-.67.93-.32.2-.77.31-1.35.31"/>
    <path class="cls-1" d="M85.71,64.17h1.32c.39,0,.67-.11.84-.34.17-.22.26-.54.26-.95s-.08-.72-.26-.91c-.17-.19-.45-.29-.84-.29h-1.32v2.48ZM85.01,66.59v-5.51h2.03c.41,0,.75.07,1.01.2.27.13.46.33.6.59.13.26.2.6.2,1.02s-.07.75-.2,1.03c-.13.28-.33.49-.6.64-.27.15-.6.22-1.01.22h-1.33v1.81h-.7Z"/>
    <polygon class="cls-1" points="91.18 66.59 91.18 61.08 92.42 61.08 93.89 65.58 95.36 61.08 96.61 61.08 96.61 66.59 95.91 66.59 95.91 61.86 95.79 61.86 94.27 66.4 93.52 66.4 92 61.86 91.88 61.86 91.88 66.59 91.18 66.59"/>
    <polygon class="cls-1" points="99.34 66.59 99.34 61.08 102.75 61.08 102.75 61.69 100.04 61.69 100.04 63.49 102.27 63.49 102.27 64.1 100.04 64.1 100.04 65.98 102.75 65.98 102.75 66.59 99.34 66.59"/>
    <polygon class="cls-1" points="105.2 66.59 105.2 61.08 106.42 61.08 108.45 65.88 108.61 65.88 108.61 61.08 109.31 61.08 109.31 66.59 108.11 66.59 106.05 61.78 105.9 61.78 105.9 66.59 105.2 66.59"/>
    <polygon class="cls-1" points="113.16 66.59 113.16 61.7 111.51 61.7 111.51 61.08 115.5 61.08 115.5 61.7 113.86 61.7 113.86 66.59 113.16 66.59"/>
    <path class="cls-1" d="M119.24,66.66c-.17,0-.36,0-.58-.03-.22-.02-.43-.04-.64-.07-.21-.03-.4-.05-.56-.08l.06-.58c.16.02.34.04.55.06.2.02.41.04.61.06.2.02.38.02.52.02.25,0,.46-.04.62-.11.17-.07.29-.19.37-.34.08-.15.12-.35.12-.59,0-.19-.04-.35-.11-.46-.07-.12-.2-.21-.37-.28-.17-.07-.41-.13-.7-.19-.29-.06-.55-.12-.76-.2-.22-.07-.4-.17-.54-.29-.14-.12-.25-.26-.32-.44-.07-.18-.1-.39-.1-.65,0-.37.08-.66.22-.88.15-.22.36-.38.63-.48s.59-.15.95-.15c.16,0,.34,0,.55.03.21.02.41.04.61.06.2.02.38.05.52.08l-.05.58c-.16-.02-.34-.04-.54-.06-.2-.02-.4-.04-.59-.05-.19-.02-.34-.02-.46-.02-.25,0-.45.03-.62.09-.17.06-.3.15-.39.28-.09.13-.13.28-.13.48,0,.23.04.4.13.52.08.12.22.21.42.28.19.07.44.13.75.2.28.07.52.14.73.22.2.07.37.17.5.28.13.11.23.25.29.41.06.17.09.37.09.61,0,.41-.07.74-.22.99-.15.25-.35.43-.62.55-.27.11-.58.17-.95.17"/>
  </g>
</svg>