<?xml version="1.0" encoding="UTF-8"?>
<svg id="Layer_1" data-name="Layer 1" xmlns="http://www.w3.org/2000/svg" viewBox="0 0 132 80">
  <defs>
    <style>
      .cls-1 {
        fill: #fff;
      }
    </style>
  </defs>
  <path class="cls-1" d="M97.88,55.73c-.91-.22-1.47-.39-1.47-.91s.49-.83,1.34-.83c.55,0,1.12.17,1.61.48l.15.09.4-.97-.1-.07c-.52-.36-1.29-.57-2.05-.57-1.84,0-2.49.98-2.49,1.9,0,1.37,1.25,1.68,2.26,1.92.9.22,1.46.39,1.46.91s-.5.8-1.37.8c-.72,0-1.47-.27-1.92-.67l-.15-.13-.45.96.08.07c.53.49,1.49.81,2.45.81,1.86,0,2.52-1.02,2.52-1.89,0-1.35-1.25-1.66-2.25-1.9h0ZM92.51,55.31c0-1.02-.85-1.23-1.56-1.23h-1.34v2.47h1.34c.71,0,1.56-.22,1.56-1.24M92.41,57.31l1.51,2.14h-1.31l-1.32-1.88c-.1,0-.21.01-.31.01h-1.37v1.87h-1.17v-6.43h2.54c1.67,0,2.7.88,2.7,2.28,0,.94-.45,1.64-1.27,2M82.85,56.7h3.08v-1.04h-3.08v-1.59h3.46v-1.05h-4.62v6.43h4.74v-1.05h-3.57v-1.69ZM77.08,54.08h-1.35v2.46h1.35c.71,0,1.56-.21,1.56-1.23s-.85-1.23-1.56-1.23M77.11,53.02c1.67,0,2.7.88,2.7,2.28s-1.04,2.28-2.7,2.28h-1.37v1.86h-1.17v-6.43h2.54,0ZM71.48,56.24c0-1.28-.92-2.21-2.23-2.21s-2.25.93-2.25,2.21.96,2.21,2.25,2.21,2.23-.93,2.23-2.21M69.25,52.95c1.94,0,3.4,1.41,3.4,3.28s-1.45,3.28-3.4,3.28-3.41-1.41-3.41-3.28,1.47-3.28,3.41-3.28M61.54,53.02h-1.17v6.43h4.49v-1.05h-3.32v-5.37ZM54.79,56.7h3.07v-1.04h-3.07v-1.59h3.45v-1.05h-4.62v6.43h4.74v-1.05h-3.57v-1.69ZM49.01,57.85l-2.11-4.82h-1.27l2.83,6.43h1.06l2.82-6.43h-1.19l-2.13,4.82ZM41.15,56.7h3.07v-1.04h-3.07v-1.59h3.45v-1.05h-4.62v6.43h4.74v-1.05h-3.57v-1.69ZM36.89,56.24c0-1.31-.92-2.16-2.34-2.16h-1.51v4.32h1.51c1.42,0,2.34-.85,2.34-2.16M34.59,53.02c2.04,0,3.46,1.32,3.46,3.21s-1.42,3.21-3.46,3.21h-2.73v-6.43h2.73ZM124.93,33.48l-2.88-8.33h-.12l-3.96,11.89c2.37-3.04,5.47-3.52,6.95-3.56h0ZM123.89,20.51l8.11,22.87h-3.64l-2.77-7.99c-4.9-.88-7.43,2.23-8.66,4.83l-1.05,3.16h-2.25l7.72-20.18,2.16-2.72.38.03ZM79.75,33.48l-2.88-8.33h-.12l-3.96,11.89c2.37-3.04,5.47-3.52,6.95-3.56h0ZM78.71,20.51l8.11,22.87h-3.64l-2.77-7.99c-4.9-.88-7.43,2.23-8.67,4.83l-1.05,3.16h-2.25l7.72-20.18,2.16-2.72.38.03ZM28.98,33.48l-2.88-8.33h-.12l-3.96,11.89c2.37-3.04,5.47-3.52,6.95-3.56h0ZM27.94,20.51l8.11,22.87h-3.64l-2.77-7.99c-4.9-.88-7.43,2.23-8.66,4.83l-1.05,3.16h-2.25l7.72-20.18,2.16-2.72.38.03ZM107.25,38.89h-.12l-11.33-17.7h-3.73l-.35,22.19h2.13l-.32-19.2h.15l12.4,19.2h2.66l.27-22.19h-2.13l.38,17.7ZM42.78,25.01h.15l7.72,18.47h1.95l7.1-18.47h.15l.24,18.37h3.46l-.44-22.19h-3.52l-6.89,17.72h-.12l-7.49-17.72h-3.58l-.56,22.19h2.13l-.29-18.37ZM8.53,30.55c3.25,1.45,5.47,3.02,5.47,6.27,0,2.22-1.3,4.26-2.63,5.27-1.24.92-2.54,1.6-4.88,1.6-1.75,0-4.59-.65-6.48-1.42l.89-2.66c2.4,1.39,5.24,2.93,7.25,3.08,1.36-.09,3.37-1.69,3.37-3.79,0-2.66-1.18-3.4-5.18-5.24-3.67-1.72-5.77-3.14-5.77-6.66,0-2.25,1.3-3.7,2.7-4.73,1.36-.98,2.66-1.36,4.38-1.36,1.98,0,3.7.38,5.24,1.04l-.95,2.43c-1.92-1.15-4.23-2.46-5.62-2.54-1.51.03-3.11,1.42-3.11,3.52,0,2.54,1.66,3.52,5.33,5.21h0Z"/>
</svg>