<?xml version="1.0" encoding="UTF-8"?>
<svg id="Layer_1" data-name="Layer 1" xmlns="http://www.w3.org/2000/svg" viewBox="0 0 132 80">
  <defs>
    <style>
      .cls-1 {
        fill: #fff;
      }
    </style>
  </defs>
  <path class="cls-1" d="M65.92,30.41c2.33-.85,3.93-2.5,3.93-5.11,0-4.04-3.69-5.77-8.38-5.77h-5.33v25.16h6.98c5.28,0,9.86-2.14,9.86-6.99,0-3.83-2.86-6.47-7.05-7.28M62.78,43.27h-2.95v-12.17h0v-1.41h0v-8.76h1.94c3.47,0,4.63,1.69,4.63,4.22,0,.42.28,4.57-3.13,5.33.87.22,2.5.76,3.8,1.96,1.36,1.13,2.01,2.88,2.01,4.88,0,3.52-1.94,5.95-6.29,5.95"/>
  <path class="cls-1" d="M1.75,43.84c1.72.88,3.9,1.27,5.78,1.27,3.25,0,8.98-1.17,8.98-6.87,0-4-2.89-6.25-7.65-9.47-2.2-1.56-5.2-3.14-5.2-5.72,0-2.14,1.98-3.42,4.72-3.42s4.9,1.3,5.42,1.65l-1.36-2.36c-.92-.52-2.94-.68-4.02-.68-3.63,0-7.88,1.54-7.88,5.87,0,3.42,2.7,5.36,7.16,8.56,2.08,1.48,5.34,3.81,5.34,6.68,0,2.7-2.1,4.37-5.49,4.37-3.97,0-6.86-2.36-7.55-2.98l1.75,3.1Z"/>
  <path class="cls-1" d="M35.21,45.11c-6.73,0-11.96-5.37-11.96-13.01s5.22-13.01,11.96-13.01,11.94,5.56,11.94,13.01-5.21,13.01-11.94,13.01M43.46,32.1c0-6.81-3.31-11.61-8.25-11.61s-8.25,4.8-8.25,11.61,3.31,11.61,8.25,11.61,8.25-4.76,8.25-11.61"/>
  <path class="cls-1" d="M125.1,37.3h-9.71l-3.03,7.38h-1.44l10.54-25.72,10.54,25.72h-3.88l-3.03-7.38ZM115.96,35.89h8.57l-4.28-10.47-4.28,10.47Z"/>
  <polygon class="cls-1" points="99.41 19.53 99.41 29.86 85.92 29.86 85.92 19.53 82.22 19.53 82.22 44.68 85.92 44.68 85.92 31.27 99.41 31.27 99.41 44.68 103.1 44.68 103.1 19.53 99.41 19.53"/>
  <path class="cls-1" d="M47.85,61.77h-1.12v-5.74h2.75c1.3,0,1.96.63,1.96,1.63v.31c0,.77-.47,1.34-1.25,1.54l1.47,2.26h-1.24l-1.39-2.16h-1.18v2.16ZM47.85,58.75h1.38c.73,0,1.09-.31,1.09-.8v-.23c0-.52-.3-.79-1.04-.79h-1.42v1.83Z"/>
  <polygon class="cls-1" points="58.56 56.03 58.56 56.96 55.33 56.96 55.33 58.42 57.85 58.42 57.85 59.3 55.33 59.3 55.33 60.84 58.56 60.84 58.56 61.77 54.24 61.77 54.24 56.03 58.56 56.03"/>
  <path class="cls-1" d="M64.4,60.57h-2.54l-.45,1.2h-1.13l2.25-5.78h1.24l2.25,5.78h-1.17l-.45-1.2ZM62.18,59.73h1.9l-.95-2.52h-.02l-.94,2.52Z"/>
  <polygon class="cls-1" points="69.54 56.03 69.54 60.8 72.41 60.8 72.41 61.77 68.42 61.77 68.42 56.03 69.54 56.03"/>
  <polygon class="cls-1" points="78.59 56.03 78.59 57 76.64 57 76.64 61.77 75.52 61.77 75.52 57 73.58 57 73.58 56.03 78.59 56.03"/>
  <polygon class="cls-1" points="81.62 56.03 83.14 58.62 84.64 56.03 85.85 56.03 83.66 59.57 83.66 61.77 82.54 61.77 82.54 59.57 80.36 56.03 81.62 56.03"/>
</svg>