<?xml version="1.0" encoding="UTF-8"?>
<svg xmlns="http://www.w3.org/2000/svg" viewBox="0 0 32 32" width="512" height="512"><g id="Layer_2" data-name="Layer 2"><path d="M27,10H26V6a3,3,0,0,0-3-3H5A3,3,0,0,0,2,6V24a1,1,0,0,0,1.625.781l4.452-3.562A1,1,0,0,1,8.7,21H10v3a3,3,0,0,0,3,3H24.528a1.019,1.019,0,0,1,.447.105l3.578,1.79A1,1,0,0,0,30,28V13A3,3,0,0,0,27,10ZM6.828,19.658,4,21.919V6A1,1,0,0,1,5,5H23a1,1,0,0,1,1,1V18a1,1,0,0,1-1,1H8.7A3,3,0,0,0,6.828,19.658ZM28,26.382l-2.131-1.066A3.014,3.014,0,0,0,24.528,25H13a1,1,0,0,1-1-1V21H23a3,3,0,0,0,3-3V12h1a1,1,0,0,1,1,1ZM11.058,9.036a3.059,3.059,0,1,1,4.053,3.847.349.349,0,0,0-.169.318,1,1,0,0,1-2,0,2.321,2.321,0,0,1,1.4-2.165,1.059,1.059,0,0,0-.205-2.018,1.072,1.072,0,0,0-1.2.689,1,1,0,0,1-1.884-.671ZM14.71,15.29A1.033,1.033,0,0,1,15,16a1,1,0,0,1-.08.38.9.9,0,0,1-.54.54.943.943,0,0,1-.76,0,.9.9,0,0,1-.54-.54A1,1,0,0,1,13,16a1.052,1.052,0,0,1,.29-.71,1.155,1.155,0,0,1,.33-.21.916.916,0,0,1,.76,0A1.155,1.155,0,0,1,14.71,15.29Z"/></g></svg>
