<svg id="Layer_1" enable-background="new 0 0 512 512" height="512" viewBox="0 0 512 512" width="512" xmlns="http://www.w3.org/2000/svg"><path clip-rule="evenodd" d="m286.2 309.95h58.582c4.418 0 8-3.582 8-8v-40.415c0-4.418-3.582-8-8-8h-58.582c-4.418 0-8 3.582-8 8v40.415c0 4.418 3.582 8 8 8zm8-40.415h42.582v24.415h-42.582zm85.536 66.478v-83.469h8.494c6.694 0 12.223-4.388 13.757-10.919 1.534-6.53-1.463-12.921-7.457-15.902l-117.506-58.414c-2.244-1.113-4.879-1.113-7.123 0l-35.745 17.77v-2.837c0-4.418-3.582-8-8-8h-27.602c-4.418 0-8 3.582-8 8v24.513l-38.159 18.97c-5.994 2.979-8.991 9.37-7.457 15.901 1.533 6.531 7.062 10.919 13.756 10.919h8.494v76.678c-14.633-1.264-27.857 4.871-39.197 11.437l-50.802 29.414-4.061-7.175c-4.985-8.809-16.211-11.919-25.019-6.934l-19.738 11.17c-8.81 4.985-11.921 16.209-6.935 25.02l58.03 102.537c2.41 4.258 6.344 7.324 11.077 8.637 1.637.453 3.299.678 4.949.678 3.124 0 6.207-.804 8.993-2.381l19.738-11.17c8.81-4.985 11.921-16.209 6.935-25.02l-5.125-9.055 9.791-5.653 89.401 23.955c5.126 1.374 10.228 2.057 15.245 2.057 10.152 0 19.962-2.796 28.931-8.317l127.669-78.613c12.412-7.643 16.383-26.845 8.332-40.288-2.485-4.154-9.879-13.543-25.666-13.509zm-173.181-145.771h11.602v2.791l-11.602 5.768zm-39.984 46.302 106.892-53.138 106.892 53.138h-8.618c-4.418 0-8 3.582-8 8v94.256c-5.744 1.853-12.192 4.729-19.421 8.939l-70.35 40.976c-2.138 1.244-4.3 2.257-6.509 3.042.57-1.335 1.057-2.745 1.453-4.225 1.669-6.23 1.005-12.577-1.482-18.153v-67.191c0-4.418-3.582-8-8-8h-51.736c-4.418 0-8 3.582-8 8v37.014c-2.426-.866-4.791-1.72-7.068-2.543-3.286-1.188-6.458-2.334-9.435-3.376v-88.738c0-4.418-3.582-8-8-8h-8.618zm84.857 117.626c-.602-.239-1.21-.466-1.835-.668-.343-.11-.693-.198-1.048-.263-11.229-2.025-22.396-5.167-32.854-8.553v-34.498h35.736v43.982zm-133.986 120.934c-.099.355-.372 1.015-1.099 1.426l-19.738 11.17c-1.111.63-2.584.224-3.214-.89l-58.03-102.537c-.411-.726-.308-1.432-.208-1.788.099-.355.372-1.015 1.099-1.426l19.738-11.17c.355-.202.748-.297 1.139-.297.829 0 1.646.431 2.075 1.187l58.03 102.537c.412.726.308 1.432.208 1.788zm271.241-98.921-127.668 78.613c-9.697 5.969-20.343 7.46-31.646 4.431l-92.603-24.812c-2.047-.55-4.232-.263-6.07.8l-12.542 7.241-33.084-58.458 50.938-29.492c11.382-6.59 23.658-12.122 36.315-8.015 4.25 1.378 9.167 3.155 14.86 5.213 16.384 5.924 36.739 13.282 57.927 17.172 6.393 2.299 9.967 8.459 8.345 14.516-1.724 6.44-6.546 9.248-14.313 8.364-10.257-2.115-20.04-4.906-30.389-7.861-4.946-1.413-10.062-2.873-15.326-4.284-4.265-1.142-8.653 1.39-9.798 5.657-1.144 4.268 1.39 8.654 5.657 9.798 5.138 1.376 10.188 2.819 15.073 4.214 10.772 3.077 32.196 8.278 32.253 8.287l8.755 1.424c13.504 2.158 25.49.05 36.65-6.449l70.351-40.976c19.022-11.08 34.087-12.547 39.309-3.824 3.529 5.892 1.99 15.372-2.994 18.441zm-327.831 11.98c.563 3.851-2.103 7.429-5.954 7.993-3.851.563-7.429-2.103-7.992-5.954s2.102-7.43 5.954-7.992c3.85-.564 7.429 2.101 7.992 5.953zm429.711-268.32-58.031-102.537c-4.985-8.81-16.212-11.919-25.019-6.934l-19.739 11.171c-8.808 4.986-11.919 16.209-6.934 25.019l5.125 9.056-9.792 5.653-89.401-23.955c-15.502-4.153-30.775-1.99-44.176 6.26l-127.669 78.613c-12.412 7.642-16.384 26.844-8.332 40.287 3.892 6.499 19.797 25.829 61.088 1.782l70.35-40.976c2.139-1.245 4.3-2.258 6.51-3.043-.57 1.335-1.058 2.745-1.454 4.226-3.839 14.325 4.646 29.272 19.317 34.03.343.11.693.198 1.048.263 20.072 3.62 39.95 10.807 55.922 16.581 5.586 2.019 10.861 3.926 15.363 5.386 4.784 1.552 9.438 2.22 13.951 2.22 13.096 0 24.988-5.627 35.316-11.606l50.803-29.415 4.061 7.176h-.001c2.41 4.258 6.344 7.324 11.077 8.637 1.637.453 3.299.678 4.949.678 3.124 0 6.207-.804 8.993-2.381l19.738-11.17c8.812-4.987 11.924-16.21 6.937-25.021zm-114.572 37.649c-11.379 6.59-23.653 12.122-36.314 8.014-4.25-1.378-9.167-3.155-14.86-5.213-16.384-5.924-36.739-13.282-57.927-17.172-6.394-2.299-9.968-8.458-8.345-14.515 1.726-6.437 6.537-9.247 14.311-8.365 10.253 2.114 20.032 4.903 30.376 7.857 4.951 1.414 10.072 2.876 15.342 4.288.693.186 1.39.274 2.075.274 3.532 0 6.765-2.357 7.723-5.932 1.144-4.269-1.39-8.654-5.657-9.798-5.144-1.378-10.199-2.821-15.089-4.218-10.768-3.075-32.183-8.274-32.238-8.283l-8.753-1.423c-13.503-2.163-25.49-.051-36.651 6.449l-70.351 40.976c-19.022 11.079-34.087 12.544-39.309 3.823-3.53-5.894-1.991-15.373 2.994-18.441l127.668-78.613c9.697-5.969 20.343-7.459 31.646-4.43l92.603 24.812c2.046.549 4.233.262 6.07-.799l12.542-7.241 33.083 58.455zm100.856-27.98c-.099.355-.372 1.015-1.099 1.426l-19.738 11.17c-1.111.631-2.584.223-3.213-.889 0-.001-.001-.001-.001-.001l-58.03-102.537c-.63-1.112-.222-2.584.891-3.214l19.738-11.17c.355-.202.748-.297 1.139-.297.829 0 1.646.431 2.075 1.187l58.03 102.537c.411.726.307 1.432.208 1.788zm-11.753-7.716c.563 3.851-2.103 7.43-5.954 7.993s-7.43-2.103-7.993-5.954 2.103-7.43 5.954-7.993c3.852-.563 7.43 2.102 7.993 5.954z" fill-rule="evenodd"/></svg>