<svg id="Layer_1" viewBox="0 0 48 48" xmlns="http://www.w3.org/2000/svg"><path d="m33.493 45c-.648 0-1.283-.253-1.76-.73l-5.391-5.391c-.558-.557-1.331-.877-2.123-.877h-16.219c-2.757 0-5-2.243-5-5v-13.292c0-.552.447-1 1-1s1 .448 1 1v13.292c0 1.654 1.346 3 3 3h16.22c1.318 0 2.607.533 3.537 1.463l5.391 5.391c.21.209.45.142.543.104s.31-.16.31-.457v-4.501c0-1.103.897-2 2-2h4c1.654 0 3-1.346 3-3v-20.002c0-1.654-1.346-3-3-3h-13.29c-.553 0-1-.448-1-1s.447-1 1-1h13.29c2.757 0 5 2.243 5 5v20.001c0 2.757-2.243 5-5 5h-4v4.501c0 1.012-.606 1.917-1.545 2.305-.312.129-.639.192-.962.192z"/><path d="m37 18h-11.26c-.553 0-1-.448-1-1s.447-1 1-1h11.26c.553 0 1 .448 1 1s-.447 1-1 1z"/><path d="m37 24h-26c-.553 0-1-.448-1-1s.447-1 1-1h26c.553 0 1 .448 1 1s-.447 1-1 1z"/><path d="m37 30h-26c-.553 0-1-.448-1-1s.447-1 1-1h26c.553 0 1 .448 1 1s-.447 1-1 1z"/><path d="m9 16h-3c-1.654 0-3-1.346-3-3v-2.338c0-1.268.345-2.514.998-3.602l1.796-2.994c.394-.657 1.116-1.066 1.884-1.066.619 0 1.213.263 1.628.722.416.459.619 1.077.558 1.693l-.265 2.645c1.368.278 2.401 1.491 2.401 2.94v2c0 1.654-1.346 3-3 3zm-1.322-11c-.069 0-.134.036-.169.095l-1.796 2.995c-.467.777-.713 1.667-.713 2.573v2.338c0 .551.448 1 1 1h3c.552 0 1-.449 1-1v-2c0-.551-.448-1-1-1h-.5c-.282 0-.552-.12-.741-.329s-.282-.489-.254-.771l.368-3.684c.007-.072-.023-.122-.05-.152-.026-.029-.073-.064-.146-.064z"/><path d="m20 16h-3c-1.654 0-3-1.346-3-3v-2.338c0-1.268.345-2.514.998-3.602l1.796-2.994c.394-.657 1.116-1.066 1.884-1.066.619 0 1.213.263 1.628.722.416.459.619 1.077.558 1.693l-.265 2.645c1.368.278 2.401 1.491 2.401 2.94v2c0 1.654-1.346 3-3 3zm-1.322-11c-.069 0-.134.036-.169.095l-1.796 2.995c-.467.777-.713 1.667-.713 2.573v2.338c0 .551.448 1 1 1h3c.552 0 1-.449 1-1v-2c0-.551-.448-1-1-1h-.5c-.282 0-.552-.12-.741-.329s-.282-.489-.254-.771l.368-3.684c.007-.072-.023-.122-.05-.152-.026-.029-.073-.064-.146-.064z"/></svg>