<svg width="48" height="47" viewBox="0 0 48 47" fill="white" xmlns="http://www.w3.org/2000/svg">
<g id="Frame" clip-path="url(#clip0_12198_13572)">
<g id="Clip path group">
<mask id="mask0_12198_13572" style="mask-type:luminance" maskUnits="userSpaceOnUse" x="0" y="0" width="48" height="47">
<g id="a">
<path id="Vector" d="M0.780762 0H47.61V47H0.780762V0Z" fill="white"/>
</g>
</mask>
<g mask="url(#mask0_12198_13572)">
<g id="Group">
<path id="Vector_2" d="M30.878 5.89307L24.9564 14.1004C24.8302 14.2684 24.6695 14.4073 24.4853 14.5078C24.3011 14.6082 24.0976 14.6678 23.8884 14.6826C23.6793 14.6974 23.4694 14.6671 23.273 14.5936C23.0765 14.5201 22.8981 14.4053 22.7496 14.2567L19.8228 11.1629" stroke="white" stroke-width="1.6" stroke-linecap="round" stroke-linejoin="round"/>
<path id="Vector_3" d="M18.8462 46.0215C18.4071 44.0762 17.3221 42.3386 15.7693 41.0938C14.2166 39.8489 12.2883 39.1709 10.301 39.1709C8.31373 39.1709 6.38547 39.8489 4.83272 41.0938C3.27997 42.3386 2.19499 44.0762 1.75586 46.0215M46.6335 46.0215C46.1954 44.0753 45.1108 42.3367 43.5579 41.091C42.0051 39.8453 40.0763 39.1667 38.0883 39.1667C36.1004 39.1667 34.1716 39.8453 32.6187 41.091C31.0659 42.3367 29.9813 44.0753 29.5432 46.0215M38.8294 0.979004C39.3468 0.979315 39.8429 1.18582 40.2087 1.55312C40.5744 1.92041 40.7799 2.41845 40.7799 2.93773V18.604C40.7799 19.1233 40.5744 19.6213 40.2087 19.9886C39.8429 20.3559 39.3468 20.5624 38.8294 20.5627H31.0242V26.4377L25.1705 20.5627H23.2189L17.3652 26.4377V20.5627H11.5116C10.9942 20.5624 10.4981 20.3559 10.1323 19.9886C9.76658 19.6213 9.56113 19.1233 9.56113 18.604V2.93773C9.56113 2.41845 9.76658 1.92041 10.1323 1.55312C10.4981 1.18582 10.9942 0.979315 11.5116 0.979004H38.8294ZM4.93674 31.8192C4.93674 32.5264 5.07552 33.2266 5.34516 33.88C5.6148 34.5333 6.01002 35.127 6.50824 35.627C7.00647 36.1271 7.59796 36.5237 8.24893 36.7943C8.89989 37.065 9.5976 37.2043 10.3022 37.2043C11.0068 37.2043 11.7045 37.065 12.3555 36.7943C13.0064 36.5237 13.5979 36.1271 14.0962 35.627C14.5944 35.127 14.9896 34.5333 15.2592 33.88C15.5289 33.2266 15.6677 32.5264 15.6677 31.8192C15.6677 30.391 15.1024 29.0213 14.0962 28.0114C13.0899 27.0016 11.7252 26.4342 10.3022 26.4342C8.87919 26.4342 7.51446 27.0016 6.50824 28.0114C5.50203 29.0213 4.93674 30.391 4.93674 31.8192ZM32.7217 31.8192C32.7217 33.2476 33.2871 34.6174 34.2934 35.6274C35.2997 36.6374 36.6646 37.2048 38.0878 37.2048C39.5109 37.2048 40.8758 36.6374 41.8821 35.6274C42.8885 34.6174 43.4538 33.2476 43.4538 31.8192C43.4538 30.3909 42.8885 29.021 41.8821 28.011C40.8758 27.001 39.5109 26.4336 38.0878 26.4336C36.6646 26.4336 35.2997 27.001 34.2934 28.011C33.2871 29.021 32.7217 30.3909 32.7217 31.8192Z" stroke="white" stroke-width="1.6" stroke-linecap="round" stroke-linejoin="round"/>
</g>
</g>
</g>
</g>
<defs>
<clipPath id="clip0_12198_13572">
<rect width="48" height="47" fill="white"/>
</clipPath>
</defs>
</svg>
