<svg width="48" height="47" viewBox="0 0 48 47" fill="white" xmlns="http://www.w3.org/2000/svg">
<g id="Frame" clip-path="url(#clip0_12198_13548)">
<g id="Clip path group">
<mask id="mask0_12198_13548" style="mask-type:luminance" maskUnits="userSpaceOnUse" x="0" y="0" width="48" height="47">
<g id="a">
<path id="Vector" d="M0.389648 0H47.2189V47H0.389648V0Z" fill="white"/>
</g>
</mask>
<g mask="url(#mask0_12198_13548)">
<g id="Group">
<path id="Vector_2" d="M34.5365 39.069L26.8097 40.6164M27.7076 31.9015L24.0971 33.3902C23.8131 33.5106 23.508 33.5726 23.1997 33.5726C22.8914 33.5726 22.5863 33.5106 22.3023 33.3902C21.8884 33.2193 21.5325 32.932 21.2774 32.5629C21.0224 32.1938 20.879 31.7586 20.8645 31.3096C20.85 30.8607 20.9651 30.4171 21.1959 30.0322C21.4267 29.6473 21.7633 29.3376 22.1654 29.1402L25.756 27.4165C26.2016 27.1834 26.697 27.0624 27.1995 27.064C27.5788 27.0722 27.9535 27.138 28.3117 27.2602L34.9076 29.8064" stroke="white" stroke-width="1.6" stroke-linecap="round" stroke-linejoin="round"/>
<path id="Vector_3" d="M13.0737 40.7142H15.805L20.351 44.1804C20.5772 44.4397 20.8947 44.6009 21.2369 44.6301C21.579 44.6592 21.9191 44.554 22.1855 44.3367L29.0144 38.8342C29.2797 38.6093 29.4482 38.2902 29.4846 37.9436C29.5211 37.597 29.4226 37.2497 29.2099 36.9742L25.4636 32.8217M21.8542 29.3754L21.3859 28.9842C20.8907 28.6285 20.2973 28.4367 19.6884 28.4354C19.3276 28.4293 18.9693 28.4961 18.6347 28.6317L13.0737 30.9229" stroke="white" stroke-width="1.6" stroke-linecap="round" stroke-linejoin="round"/>
<path id="Vector_4" d="M1.36621 24.0677L22.4195 2.9377C22.6009 2.75414 22.8167 2.60844 23.0546 2.50902C23.2924 2.40959 23.5474 2.3584 23.805 2.3584C24.0627 2.3584 24.3177 2.40959 24.5555 2.50902C24.7933 2.60844 25.0092 2.75414 25.1906 2.9377L46.2439 24.0677M31.6097 3.50523H37.4634C37.5915 3.50523 37.7185 3.53058 37.8369 3.57985C37.9552 3.62911 38.0628 3.70131 38.1534 3.79232C38.244 3.88333 38.3158 3.99137 38.3647 4.11026C38.4136 4.22914 38.4388 4.35654 38.4386 4.48518V10.3602M7.21987 41.6927C7.21972 41.8214 7.24483 41.9488 7.29377 42.0676C7.34271 42.1865 7.41452 42.2946 7.50509 42.3856C7.59566 42.4766 7.70322 42.5488 7.82162 42.5981C7.94001 42.6473 8.06692 42.6727 8.19509 42.6727H11.1219C11.6395 42.6727 12.1359 42.4663 12.5019 42.099C12.8679 41.7316 13.0735 41.2334 13.0735 40.714V30.9227C13.0737 30.6654 13.0233 30.4106 12.9253 30.1729C12.8273 29.9352 12.6835 29.7192 12.5023 29.5373C12.321 29.3554 12.1058 29.2111 11.8689 29.1127C11.6321 29.0144 11.3783 28.9638 11.1219 28.964H8.19509C7.93644 28.964 7.68839 29.0671 7.5055 29.2506C7.32262 29.4342 7.21987 29.6831 7.21987 29.9427V41.6927ZM40.3902 41.6927C40.3904 41.8214 40.3653 41.9488 40.3163 42.0676C40.2674 42.1865 40.1956 42.2946 40.105 42.3856C40.0144 42.4766 39.9069 42.5488 39.7885 42.5981C39.6701 42.6473 39.5432 42.6727 39.415 42.6727H36.4882C35.9706 42.6727 35.4742 42.4663 35.1082 42.099C34.7422 41.7316 34.5366 41.2334 34.5366 40.714V30.9227C34.5366 30.4032 34.7422 29.905 35.1082 29.5376C35.4742 29.1703 35.9706 28.964 36.4882 28.964H39.415C39.6736 28.964 39.9217 29.0671 40.1046 29.2506C40.2875 29.4342 40.3902 29.6831 40.3902 29.9427V41.6927Z" stroke="white" stroke-width="1.6" stroke-linecap="round" stroke-linejoin="round"/>
</g>
</g>
</g>
</g>
<defs>
<clipPath id="clip0_12198_13548">
<rect width="48" height="47" fill="white"/>
</clipPath>
</defs>
</svg>
