<?xml version="1.0" encoding="UTF-8"?>
<svg id="Layer_1" data-name="Layer 1" xmlns="http://www.w3.org/2000/svg" viewBox="0 0 512 512">
  <defs>
    <style>
      .cls-1 {
        fill: none;
        stroke: #094834;
        stroke-linecap: round;
        stroke-linejoin: round;
        stroke-width: 11px;
      }
    </style>
  </defs>
  <polyline class="cls-1" points="64.44 470.91 64.44 309.01 132.77 257.9"/>
  <polyline class="cls-1" points="447.56 470.91 447.56 260.57 377.54 260.57"/>
  <polyline class="cls-1" points="377.54 364.97 377.54 209.57 272.51 152.49"/>
  <polyline class="cls-1" points="272.51 203.8 272.51 121.93 137.43 121.93 137.43 445.37"/>
  <circle class="cls-1" cx="256.26" cy="313.26" r="81.91"/>
  <path class="cls-1" d="M325.03,361.87l64.21,80.46c5.73,7.18,4.56,17.65-2.63,23.38h0c-7.18,5.73-17.65,4.56-23.38-2.63l-63.82-79.97"/>
  <polyline class="cls-1" points="172.77 121.93 172.77 91.21 237.17 91.21 237.17 121.93"/>
  <line class="cls-1" x1="204.97" y1="42.01" x2="204.97" y2="91.21"/>
  <line class="cls-1" x1="137.43" y1="445.37" x2="295.77" y2="445.37"/>
</svg>