<?xml version="1.0" encoding="UTF-8"?>
<svg id="Layer_1" data-name="Layer 1" xmlns="http://www.w3.org/2000/svg" viewBox="0 0 512 512">
  <defs>
    <style>
      .cls-1 {
        fill-rule: evenodd;
        stroke-width: 8px;
      }

      .cls-1, .cls-2 {
        fill: none;
        stroke: #d3c193;
        stroke-linecap: round;
        stroke-linejoin: round;
      }

      .cls-2 {
        stroke-width: 11px;
      }
    </style>
  </defs>
  <path class="cls-2" d="M334.88,305.72c-22.94,22.94-54.64,37.13-89.65,37.13-54.57,0-101.09-34.48-118.96-82.84"/>
  <path class="cls-2" d="M141.69,142.89c22.96-32.43,60.78-53.6,103.54-53.6s80.58,21.17,103.54,53.6"/>
  <path class="cls-2" d="M112.49,470.91s13.04-121.77,133.36-121.77,132.11,121.77,132.11,121.77"/>
  <g>
    <rect class="cls-2" x="87.17" y="157.42" width="49.04" height="75.5" rx="10.41" ry="10.41"/>
    <rect class="cls-2" x="221.9" y="263.15" width="36.49" height="56.18" rx="10.41" ry="10.41" transform="translate(531.39 51.09) rotate(90)"/>
    <rect class="cls-2" x="354.07" y="157.52" width="49.04" height="75.5" rx="10.41" ry="10.41"/>
    <path class="cls-2" d="M113.15,157.42c9.05-64.85,64.74-114.76,132.08-114.76s123.09,49.97,132.09,114.87"/>
    <path class="cls-2" d="M378.59,233.02s16.77,61.77-110.35,58.22"/>
  </g>
  <polygon class="cls-1" points="244.56 349.15 224.87 444.66 245.04 470.91 265.59 444.66 244.56 349.15"/>
</svg>