<?xml version="1.0" encoding="UTF-8"?>
<svg id="Layer_1" data-name="Layer 1" xmlns="http://www.w3.org/2000/svg" viewBox="0 0 436 439.25">
  <defs>
    <style>
      .cls-1 {
        stroke: #094834;
      }

      .cls-1, .cls-2 {
        fill: none;
        stroke-linecap: round;
        stroke-linejoin: round;
        stroke-width: 11px;
      }

      .cls-2 {
        stroke: #9f8252;
      }
    </style>
  </defs>
  <polyline class="cls-1" points="244.19 144.72 293.81 97.88 327.44 129.86 381.02 76.34"/>
  <polyline class="cls-1" points="359.65 65.21 388.75 65.21 388.75 92.08"/>
  <path class="cls-1" d="M356.06,145.18c2.47,11.74,3.76,23.91,3.76,36.38,0,97.24-78.83,176.06-176.06,176.06"/>
  <path class="cls-1" d="M35.78,276.99c-17.77-27.5-28.08-60.26-28.08-95.43C7.7,84.32,86.53,5.5,183.76,5.5c60.93,0,114.63,30.95,146.24,77.99"/>
  <path class="cls-2" d="M235.09,123.49c-15.29-7.46-32.6-12.56-51.33-12.56-54.58,0-98.83,43.06-115.47,61.75-4.34,4.88-4.33,12.23.02,17.1,15.76,17.66,56.79,56.33,113.99,56.33s98.49-38.67,114.14-56.15c4.28-4.78,4.41-11.97.27-16.87-5.45-6.46-14.05-15.84-25.23-25.36"/>
  <circle class="cls-2" cx="182.39" cy="181.86" r="36.81" transform="translate(-26.34 332.76) rotate(-80.78)"/>
  <polyline class="cls-1" points="5.5 433.75 5.5 314.68 64.1 314.68 64.1 433.75"/>
  <polyline class="cls-1" points="92.48 433.75 92.48 277.62 151.08 277.62 151.08 433.75"/>
  <path class="cls-1" d="M327.54,286.29l92.49,88.43c13.61,13.07,14,34.72.86,48.27h0c-13.05,13.46-34.53,13.84-48.05.84l-96.34-92.61"/>
</svg>