<?xml version="1.0" encoding="UTF-8"?>
<svg id="Layer_1" data-name="Layer 1" xmlns="http://www.w3.org/2000/svg" viewBox="0 0 512 512">
  <defs>
    <style>
      .cls-1 {
        fill: none;
        stroke: #d3c193;
        stroke-linecap: round;
        stroke-linejoin: round;
        stroke-width: 11px;
      }
    </style>
  </defs>
  <polyline class="cls-1" points="282.19 181.88 331.81 135.04 365.44 167.02 419.02 113.5"/>
  <polyline class="cls-1" points="397.65 102.37 426.75 102.37 426.75 129.24"/>
  <path class="cls-1" d="M394.06,182.34c2.47,11.74,3.76,23.91,3.76,36.38,0,97.24-78.83,176.06-176.06,176.06"/>
  <path class="cls-1" d="M73.78,314.15c-17.77-27.5-28.08-60.26-28.08-95.43,0-97.24,78.83-176.06,176.06-176.06,60.93,0,114.63,30.95,146.24,77.99"/>
  <path class="cls-1" d="M273.09,160.65c-15.29-7.46-32.6-12.56-51.33-12.56-54.58,0-98.83,43.06-115.47,61.75-4.34,4.88-4.33,12.23.02,17.1,15.76,17.66,56.79,56.33,113.99,56.33s98.49-38.67,114.14-56.15c4.28-4.78,4.41-11.97.27-16.87-5.45-6.46-14.05-15.84-25.23-25.36"/>
  <circle class="cls-1" cx="220.39" cy="219.02" r="36.81"/>
  <polyline class="cls-1" points="43.5 470.91 43.5 351.84 102.1 351.84 102.1 470.91"/>
  <polyline class="cls-1" points="130.48 470.91 130.48 314.78 189.08 314.78 189.08 470.91"/>
  <path class="cls-1" d="M365.54,323.45l92.49,88.43c13.61,13.07,14,34.72.86,48.27h0c-13.05,13.46-34.53,13.84-48.05.84l-96.34-92.61"/>
</svg>