<svg width="50" height="43" viewBox="0 0 50 43" fill="none" xmlns="http://www.w3.org/2000/svg">
<g id="Group 6">
<path id="Vector" d="M12.2363 41.5416V9.76318H28.9625V41.5416" stroke="#07234B" stroke-linecap="round" stroke-linejoin="round"/>
<path id="Vector_2" d="M23.0183 7.10462V3.16615L38.686 7.84308V41.5415M20.5937 5.29539H13.9475V9.76308M12.2367 21.1231L4.12598 24.8154V41.5415M40.9137 18.44H46.0706V41.5415M37.0737 7.36308V1M33.4798 6.29231V3.16615" stroke="#07234B" stroke-linecap="round" stroke-linejoin="round"/>
<path id="Vector_3" opacity="0.6" d="M38.6866 12.4092H33.4805M38.6866 18.5384H33.4805M38.6866 24.6553H33.4805M38.6866 30.7723H33.4805M38.6866 36.9015H33.4805" stroke="#07234B" stroke-linecap="round" stroke-linejoin="round"/>
<g id="Group" opacity="0.6">
<path id="Vector_4" d="M15.8677 13.9971H18.4646M22.7354 13.9971H25.32" stroke="#07234B" stroke-linecap="round" stroke-linejoin="round"/>
</g>
<g id="Group_2" opacity="0.6">
<path id="Vector_5" d="M15.8677 18.4404H18.4646M22.7354 18.4404H25.32" stroke="#07234B" stroke-linecap="round" stroke-linejoin="round"/>
</g>
<g id="Group_3" opacity="0.6">
<path id="Vector_6" d="M15.8677 22.8955H18.4646M22.7354 22.8955H25.32" stroke="#07234B" stroke-linecap="round" stroke-linejoin="round"/>
</g>
<g id="Group_4" opacity="0.6">
<path id="Vector_7" d="M15.8677 27.3389H18.4646M22.7354 27.3389H25.32" stroke="#07234B" stroke-linecap="round" stroke-linejoin="round"/>
</g>
<g id="Group_5" opacity="0.6">
<path id="Vector_8" d="M15.8677 31.7817H18.4646M22.7354 31.7817H25.32" stroke="#07234B" stroke-linecap="round" stroke-linejoin="round"/>
</g>
<g id="Group_6" opacity="0.6">
<path id="Vector_9" d="M15.8677 36.2246H18.4646M22.7354 36.2246H25.32" stroke="#07234B" stroke-linecap="round" stroke-linejoin="round"/>
</g>
<path id="Vector_10" opacity="0.6" d="M4.31055 27.9668H7.04285M4.31055 32.3976H7.04285M4.31055 36.8283H7.04285" stroke="#07234B" stroke-linecap="round" stroke-linejoin="round"/>
<path id="Vector_11" d="M1 41.542H49" stroke="#07234B" stroke-linecap="round" stroke-linejoin="round"/>
</g>
</svg>
