<svg width="49" height="49" viewBox="0 0 49 49" fill="none" xmlns="http://www.w3.org/2000/svg">
<g id="Group 3">
<path id="Vector" d="M11.4068 19.9634C10.273 19.6394 9.32812 18.4651 9.32812 17.2368V16.2515C9.32812 15.8466 9.4766 15.4956 9.73306 15.2257C10.0165 14.9287 10.4079 14.7397 10.8534 14.7397H11.3663" stroke="#07234B" stroke-linecap="round" stroke-linejoin="round"/>
<path id="Vector_2" d="M9.733 15.2256L9.57102 14.8747C9.15259 14.0108 8.89614 13.066 8.86914 12.1076V11.9322C8.86914 9.09763 10.6373 6.43858 13.4719 5.45324L13.6878 4.60288C13.9173 3.71203 14.4032 2.92916 15.0511 2.32176C15.699 1.71436 16.5224 1.29593 17.4267 1.14746C19.9717 0.705233 22.589 1.26644 24.729 2.7132C26.8137 4.12392 28.2813 6.2771 28.8323 8.73319" stroke="#07234B" stroke-linecap="round" stroke-linejoin="round"/>
<path id="Vector_3" d="M11.3394 14.7261L11.6633 13.2413C11.9198 11.4461 12.8106 9.79938 14.1874 8.62508L14.5383 8.32812M25.1206 29.6141L23.7438 26.5501C23.1633 27.2236 22.4445 27.764 21.6362 28.1343C20.8279 28.5047 19.9492 28.6964 19.0601 28.6962C18.1557 28.6962 17.2784 28.5073 16.482 28.1293C15.6856 27.7649 14.9703 27.225 14.3763 26.5501L12.8916 24.8359C11.9216 23.7154 11.3895 22.282 11.3933 20.8V19.9767" stroke="#07234B" stroke-linecap="round" stroke-linejoin="round"/>
<path id="Vector_4" d="M13.4585 5.45312L13.688 6.28999C13.7689 6.60044 13.8769 6.89738 14.0119 7.19433L14.2549 7.74774C14.6058 8.53061 15.0917 9.2325 15.6991 9.8129C16.3065 10.3933 17.0219 10.8657 17.8318 11.1762C18.9656 11.6216 20.2209 11.7431 21.4222 11.5271L23.5413 11.1357C23.7033 11.1087 23.8653 11.0952 24.0272 11.0952C24.3647 11.0952 24.7021 11.1627 25.0126 11.2842" stroke="#07234B" stroke-linecap="round" stroke-linejoin="round"/>
<g id="Group" opacity="0.6">
<path id="Vector_5" d="M37.7002 29.3304V45.9056C37.7002 47.0529 36.7688 47.9708 35.6215 47.9708H35.4865C34.3392 47.9708 33.4214 47.0394 33.4214 45.8921V29.3169" stroke="#07234B" stroke-linecap="round" stroke-linejoin="round"/>
<path id="Vector_6" d="M42.7807 26.2606C46.2155 22.2729 45.7673 16.2559 41.7796 12.8212C37.792 9.38642 31.775 9.83462 28.3403 13.8222C24.9055 17.8099 25.3537 23.8269 29.3413 27.2616C33.329 30.6964 39.346 30.2482 42.7807 26.2606Z" stroke="#07234B" stroke-linecap="round" stroke-linejoin="round"/>
<path id="Vector_7" d="M42.1544 18.9242L35.554 13.5791L28.9536 18.9242M31.0998 19.0457V25.2817H40.0083V19.0457" stroke="#07234B" stroke-linecap="round" stroke-linejoin="round"/>
</g>
<path id="Vector_8" d="M18.4528 32.6106L13.0132 29.6141C12.8026 29.4958 12.5544 29.4635 12.3205 29.5239C12.0866 29.5842 11.885 29.7326 11.7579 29.9381L11.218 30.7614C11.0426 31.0314 11.0156 31.3688 11.137 31.6523L13.4452 36.9974C13.5037 37.1356 13.5943 37.2579 13.7095 37.3542C13.8247 37.4504 13.9612 37.5178 14.1076 37.5508C14.2541 37.5838 14.4063 37.5814 14.5516 37.5438C14.697 37.5063 14.8313 37.4346 14.9434 37.3348L18.6148 34.1629C19.1142 33.7309 19.0332 32.9211 18.4528 32.6106Z" stroke="#07234B" stroke-linecap="round" stroke-linejoin="round"/>
<path id="Vector_9" d="M11.0423 31.288L4.90086 33.0292C3.77624 33.3483 2.78661 34.026 2.08248 34.9591C1.37835 35.8923 0.998258 37.0298 1.00001 38.1989V43.2335M27.1047 31.288L28.6839 31.7334M15.6856 36.7141L17.8587 38.8602L16.7249 43.598M22.4074 36.7141L20.2343 38.8602L21.3681 43.598M7.20897 39.6161V43.22M13.013 29.6143L14.3898 26.5503M19.6809 32.6108L25.1205 29.6143C25.5524 29.3713 26.1058 29.5063 26.3758 29.9382L26.9157 30.7616C27.0912 31.0315 27.1182 31.369 26.9967 31.6524L24.6886 36.9976C24.63 37.1358 24.5394 37.2581 24.4242 37.3543C24.309 37.4506 24.1725 37.518 24.0261 37.551C23.8796 37.5839 23.7274 37.5816 23.5821 37.544C23.4367 37.5064 23.3024 37.4348 23.1903 37.335L19.5189 34.163C19.4031 34.0628 19.3131 33.936 19.2567 33.7935C19.2004 33.651 19.1792 33.4971 19.1951 33.3447C19.211 33.1923 19.2635 33.046 19.3481 32.9182C19.4326 32.7904 19.5468 32.685 19.6809 32.6108Z" stroke="#07234B" stroke-linecap="round" stroke-linejoin="round"/>
</g>
</svg>
