<svg width="50" height="42" viewBox="0 0 50 42" fill="none" xmlns="http://www.w3.org/2000/svg">
<g id="Group 4">
<path id="Vector" d="M30.6799 28.1057V36.7049M9.75229 36.7049V1H22.9155M43.3422 15.9443L46.8626 16.8766V29.0519M5.3831 20.9118H1V36.7049H38.0824M16.0278 36.7049V30.3181H24.4183V36.7049" stroke="#07234B" stroke-linecap="round" stroke-linejoin="round"/>
<path id="Vector_2" d="M17.1268 9.48777H12.8968V4.42285H19.2279M17.1268 18.0731H12.8968V13.0082H16.0554M27.2567 26.6445H12.8968V21.5796H19.2279M5.38288 26.074H1.2085M1.2085 30.958H5.38288" stroke="#07234B" stroke-linecap="round" stroke-linejoin="round"/>
<path id="Vector_3" opacity="0.6" d="M37.4841 28.1061L34.5063 23.6951M40.0444 26.3807L37.1501 22.0811M47.9061 40.7406C46.7651 41.5059 45.2206 41.2136 44.4414 40.0727L36.7188 28.6348L40.8514 25.838L48.574 37.2758C49.3393 38.4168 49.0471 39.9613 47.9061 40.7406Z" stroke="#07234B" stroke-linecap="round" stroke-linejoin="round"/>
<path id="Vector_4" opacity="0.6" d="M29.9981 24.6408C36.2305 24.6408 41.2829 19.5884 41.2829 13.356C41.2829 7.12364 36.2305 2.07129 29.9981 2.07129C23.7657 2.07129 18.7134 7.12364 18.7134 13.356C18.7134 19.5884 23.7657 24.6408 29.9981 24.6408Z" stroke="#07234B" stroke-linecap="round" stroke-linejoin="round"/>
</g>
</svg>
