 <svg
              xmlns="http://www.w3.org/2000/svg"
              width="77"
              height="131"
              viewBox="0 0 77 131"
              fill="none"
            >
              <path
                d="M0 0V110.311L38.4164 131L76.8328 110.311V0H0Z"
                fill="#002171"
              ></path>
              <path
                d="M72.4851 117.064H71.7341V118.707H71.0474V117.064H70.3031V116.402H72.4861V117.064H72.4851ZM75.5354 118.707H74.8487V117.757L74.3291 118.682H74.0208L73.5012 117.757V118.707H72.8145V116.402H73.3985L74.1754 117.795L74.9524 116.402H75.5363V118.707H75.5354Z"
                fill="#002171"
              ></path>
              <path d="M76.8328 0H0V76.8328H76.8328V0Z" fill="#FF1628"></path>
              <path
                d="M19.116 11.8746V12.9148C19.116 14.8413 18.4994 16.402 17.2663 17.5958C16.0331 18.7906 14.434 19.3879 12.4882 19.3879C10.407 19.3879 8.67348 18.7137 7.30586 17.3653C5.93823 15.9977 5.26402 14.341 5.26402 12.3952C5.26402 10.4494 5.93823 8.77347 7.28665 7.40585C8.65427 6.03822 10.3302 5.36401 12.3336 5.36401C14.8576 5.36401 17.054 6.59718 18.2094 8.50456L15.9361 9.81456C15.3003 8.71681 13.9135 7.9456 12.3144 7.9456C11.0236 7.9456 9.96427 8.36914 9.13544 9.21718C8.30756 10.046 7.90227 11.1053 7.90227 12.3961C7.90227 13.6869 8.32581 14.7271 9.15465 15.5559C10.0027 16.3838 11.1196 16.7891 12.5065 16.7891C14.5675 16.7891 15.9544 15.8258 16.4365 14.2267H12.3528V11.8766H19.1151L19.116 11.8746Z"
                fill="white"
              ></path>
              <path
                d="M23.0969 11.1427C23.5358 9.90955 24.6345 9.29297 25.8792 9.29297V12.0676C25.1656 11.9716 24.5068 12.1252 23.9392 12.5305C23.3716 12.9348 23.0969 13.5898 23.0969 14.5147V19.1189H20.7362V9.48601H23.0969V11.1427Z"
                fill="white"
              ></path>
              <path
                d="M29.8668 15.3233C30.1943 16.5373 31.1 17.1346 32.5829 17.1346C33.527 17.1346 34.2588 16.8071 34.7409 16.1714L36.7443 17.3267C35.8002 18.6944 34.3942 19.3878 32.5444 19.3878C30.9454 19.3878 29.6738 18.9056 28.7105 17.9433C27.7472 16.98 27.2651 15.7661 27.2651 14.3024C27.2651 12.8387 27.7472 11.644 28.6913 10.6807C29.6354 9.69819 30.8685 9.21606 32.3514 9.21606C33.7575 9.21606 34.933 9.69819 35.8387 10.6807C36.7635 11.6632 37.2255 12.8579 37.2255 14.3024C37.2255 14.6299 37.1871 14.9574 37.1295 15.3233H29.8668ZM34.7409 13.3967C34.4518 12.0867 33.4885 11.4509 32.3524 11.4509C31.0232 11.4509 30.1175 12.1636 29.8284 13.3967H34.7409Z"
                fill="white"
              ></path>
              <path
                d="M46.1852 9.48592H48.6707V19.1188H46.1852V17.9817C45.4341 18.9258 44.394 19.3878 43.0446 19.3878C41.6952 19.3878 40.6561 18.9056 39.7312 17.9231C38.8255 16.9406 38.3636 15.7267 38.3636 14.3014C38.3636 12.8762 38.8265 11.6814 39.7312 10.6989C40.6561 9.71642 41.7538 9.21509 43.0446 9.21509C44.3354 9.21509 45.4332 9.67705 46.1852 10.6211V9.48496V9.48592ZM43.5075 17.0184C44.2787 17.0184 44.9136 16.7678 45.4149 16.2674C45.9345 15.7468 46.1852 15.0918 46.1852 14.3024C46.1852 13.5129 45.9345 12.8579 45.4149 12.3566C44.9136 11.836 44.2787 11.5863 43.5075 11.5863C42.7363 11.5863 42.1015 11.837 41.6002 12.3566C41.0988 12.8579 40.8491 13.5129 40.8491 14.3024C40.8491 15.0918 41.0998 15.7468 41.6002 16.2674C42.1005 16.7678 42.7363 17.0184 43.5075 17.0184Z"
                fill="white"
              ></path>
              <path
                d="M56.8208 11.8744H54.6435V15.8813C54.6435 16.9214 55.3946 16.9406 56.8208 16.8638V19.1179C53.4104 19.503 52.158 18.5205 52.158 15.8813V11.8744H50.4821V9.48589H52.158V7.5401L54.6435 6.78906V9.48589H56.8208V11.8744Z"
                fill="white"
              ></path>
              <path
                d="M12.0656 22.5708C13.3564 22.5708 14.4542 23.0135 15.3406 23.8808C16.2271 24.7481 16.6698 25.8266 16.6698 27.0982C16.6698 28.3698 16.2271 29.4483 15.3406 30.3156C14.4542 31.1828 13.3564 31.6256 12.0656 31.6256H9.6963V36.0569H7.03789V22.5708H12.0666H12.0656ZM12.0656 29.14C13.2018 29.14 14.0306 28.2535 14.0306 27.0982C14.0306 25.9428 13.2028 25.0563 12.0656 25.0563H9.6963V29.14H12.0656Z"
                fill="white"
              ></path>
              <path
                d="M20.9667 22.6956H18.4811V36.0568H20.9667V22.6956Z"
                fill="white"
              ></path>
              <path
                d="M30.9463 26.4237H33.4319V36.0556H30.9463V34.9185C30.1953 35.8626 29.1552 36.3245 27.8058 36.3245C26.4564 36.3245 25.4173 35.8424 24.4924 34.8609C23.5867 33.8784 23.1248 32.6644 23.1248 31.2392C23.1248 29.8139 23.5867 28.6192 24.4924 27.6367C25.4173 26.6542 26.515 26.1528 27.8058 26.1528C29.0966 26.1528 30.1943 26.6148 30.9463 27.5589V26.4227V26.4237ZM28.2687 33.9562C29.0399 33.9562 29.6748 33.7055 30.1761 33.2051C30.6957 32.6846 30.9463 32.0296 30.9463 31.2401C30.9463 30.4507 30.6957 29.7957 30.1761 29.2943C29.6748 28.7738 29.0399 28.5241 28.2687 28.5241C27.4975 28.5241 26.8627 28.7748 26.3613 29.2943C25.86 29.7957 25.6103 30.4507 25.6103 31.2401C25.6103 32.0296 25.861 32.6846 26.3613 33.2051C26.8617 33.7055 27.4985 33.9562 28.2687 33.9562Z"
                fill="white"
              ></path>
              <path
                d="M37.0161 34.8619C36.0528 33.8794 35.5707 32.6846 35.5707 31.2402C35.5707 29.7957 36.0528 28.601 37.0161 27.6185C37.9986 26.636 39.2126 26.1548 40.657 26.1548C42.526 26.1548 44.1827 27.1181 44.9722 28.6403L42.8343 29.8927C42.4492 29.1032 41.6203 28.6019 40.6378 28.6019C39.155 28.6019 38.0563 29.6997 38.0563 31.2411C38.0563 31.9922 38.3069 32.628 38.7881 33.1293C39.2692 33.6105 39.8858 33.8611 40.6378 33.8611C41.6395 33.8611 42.4684 33.379 42.8535 32.5895L45.0115 33.8227C44.1645 35.345 42.526 36.3275 40.658 36.3275C39.2135 36.3275 37.9996 35.8453 37.0171 34.8628"
                fill="white"
              ></path>
              <path
                d="M48.98 32.2611C49.3075 33.475 50.2132 34.0724 51.696 34.0724C52.6401 34.0724 53.3719 33.7449 53.8541 33.1091L55.8575 34.2645C54.9134 35.6321 53.5074 36.3255 51.6576 36.3255C50.0585 36.3255 48.7869 35.8434 47.8237 34.8811C46.8604 33.9178 46.3782 32.7038 46.3782 31.2401C46.3782 29.7765 46.8604 28.5817 47.8044 27.6184C48.7485 26.6359 49.9817 26.1538 51.4646 26.1538C52.8706 26.1538 54.0462 26.635 54.9518 27.6184C55.8767 28.6009 56.3387 29.7957 56.3387 31.2401C56.3387 31.5676 56.3002 31.8951 56.2426 32.2611H48.98ZM53.8541 30.3345C53.565 29.0245 52.6017 28.3887 51.4655 28.3887C50.1363 28.3887 49.2307 29.1013 48.9416 30.3345H53.8541Z"
                fill="white"
              ></path>
              <path
                d="M15.186 40.1816V42.598H11.5451V52.9935H8.88668V42.598H5.26401V40.1816H15.186Z"
                fill="white"
              ></path>
              <path
                d="M19.3273 53.2635C17.9021 53.2635 16.6881 52.7814 15.7056 51.7989C14.7231 50.8164 14.241 49.6024 14.241 48.1772C14.241 46.7519 14.7231 45.5572 15.7056 44.5747C16.6881 43.5922 17.9021 43.0908 19.3273 43.0908C20.7526 43.0908 21.9665 43.5912 22.949 44.5747C23.9315 45.5572 24.4328 46.7519 24.4328 48.1772C24.4328 49.6024 23.9325 50.8164 22.949 51.7989C21.9665 52.7814 20.7526 53.2635 19.3273 53.2635ZM19.3273 50.8356C20.0783 50.8356 20.6949 50.5849 21.1963 50.0845C21.6966 49.5832 21.9473 48.9474 21.9473 48.1772C21.9473 47.4069 21.6966 46.7711 21.1963 46.2698C20.6949 45.7694 20.0793 45.5187 19.3273 45.5187C18.5753 45.5187 17.9597 45.7694 17.4583 46.2698C16.9762 46.7711 16.7265 47.4059 16.7265 48.1772C16.7265 48.9484 16.9772 49.5832 17.4583 50.0845C17.9587 50.5849 18.5753 50.8356 19.3273 50.8356Z"
                fill="white"
              ></path>
              <path
                d="M9.40529 70.7197L5.62895 57.2336H8.42183L11.0034 67.2325L13.8165 57.2336H16.0897L18.922 67.2325L21.5036 57.2336H24.2964L20.5211 70.7197H17.4958L14.9526 61.8186L12.4296 70.7197H9.40529Z"
                fill="white"
              ></path>
              <path
                d="M29.1533 70.9898C27.728 70.9898 26.5141 70.5077 25.5316 69.5252C24.5491 68.5427 24.0669 67.3287 24.0669 65.9035C24.0669 64.4782 24.5491 63.2835 25.5316 62.301C26.5141 61.3185 27.728 60.8171 29.1533 60.8171C30.5785 60.8171 31.7925 61.3175 32.775 62.301C33.7575 63.2835 34.2588 64.4782 34.2588 65.9035C34.2588 67.3287 33.7584 68.5427 32.775 69.5252C31.7925 70.5077 30.5785 70.9898 29.1533 70.9898ZM29.1533 68.5619C29.9043 68.5619 30.5209 68.3112 31.0222 67.8108C31.5226 67.3095 31.7733 66.6747 31.7733 65.9035C31.7733 65.1323 31.5226 64.4974 31.0222 63.9961C30.5209 63.4957 29.9053 63.2451 29.1533 63.2451C28.4013 63.2451 27.7856 63.4957 27.2843 63.9961C26.8022 64.4974 26.5525 65.1323 26.5525 65.9035C26.5525 66.6747 26.8031 67.3095 27.2843 67.8108C27.7847 68.3112 28.4013 68.5619 29.1533 68.5619Z"
                fill="white"
              ></path>
              <path
                d="M38.4971 62.7438C38.959 61.5106 40.1154 60.894 41.4254 60.894V63.6687C40.6734 63.5726 39.98 63.7263 39.3826 64.1316C38.7852 64.5359 38.4961 65.1909 38.4961 66.1158V70.72H36.0106V61.0871H38.4961V62.7438H38.4971Z"
                fill="white"
              ></path>
              <path
                d="M52.1377 70.7197H49.2478L45.7414 66.346V70.7197H43.2568V57.2336H45.7414V65.3251L49.0548 61.0868H52.0215L48.1501 65.8456L52.1377 70.7197Z"
                fill="white"
              ></path>
              <path
                d="M53.0444 68.9834C53.0444 67.7762 54.0058 66.8052 55.2226 66.8052C56.4395 66.8052 57.4009 67.7665 57.4009 68.9738C57.4009 70.181 56.4395 71.1424 55.2226 71.1424C54.0058 71.1424 53.0444 70.2098 53.0444 68.9834ZM57.008 68.9738C57.008 67.9039 56.2618 67.1586 55.2226 67.1586C54.1835 67.1586 53.4363 67.9144 53.4363 68.9834C53.4363 70.0523 54.2209 70.789 55.2226 70.789C56.2244 70.789 57.008 70.0437 57.008 68.9738ZM54.4764 67.8751H55.2323C55.7326 67.8751 56.0563 68.0816 56.0563 68.5224V68.532C56.0563 68.8557 55.87 69.0324 55.6145 69.1111L56.184 70.0235H55.6932L55.1727 69.1899H54.947V70.0235H54.4764V67.8751ZM55.2226 68.8662C55.4675 68.8662 55.5953 68.7587 55.5953 68.5522V68.5426C55.5953 68.3169 55.4579 68.2381 55.2226 68.2381H54.948V68.8662H55.2226Z"
                fill="white"
              ></path>
              <path
                d="M8.39969 88.9724C8.39969 85.8568 10.7095 83.4404 13.9317 83.4404C15.8774 83.4404 17.5947 84.4287 18.5061 85.9481L16.6976 86.9968C16.1809 86.0547 15.1475 85.4765 13.9317 85.4765C11.8495 85.4765 10.4819 86.92 10.4819 88.9724C10.4819 91.0248 11.8495 92.4529 13.9317 92.4529C15.1475 92.4529 16.1963 91.8757 16.6976 90.948L18.5061 91.9967C17.6091 93.5171 15.8919 94.5044 13.9317 94.5044C10.7095 94.5044 8.39969 92.0726 8.39969 88.9724Z"
                fill="white"
              ></path>
              <path
                d="M23.1267 92.7258C23.8863 92.7258 24.4943 92.4069 24.8285 91.9661L26.4093 92.8785C25.6948 93.9119 24.5548 94.5044 23.0959 94.5044C20.5422 94.5044 18.9316 92.7565 18.9316 90.4918C18.9316 88.2272 20.5576 86.4792 22.9442 86.4792C25.1935 86.4792 26.7897 88.2579 26.7897 90.4918C26.7897 90.7809 26.7589 91.0393 26.7138 91.2976H20.984C21.2577 92.3013 22.0933 92.7267 23.1267 92.7267V92.7258ZM24.8285 89.7773C24.5855 88.6834 23.7644 88.2426 22.9442 88.2426C21.8954 88.2426 21.1809 88.8054 20.9532 89.7773H24.8285Z"
                fill="white"
              ></path>
              <path
                d="M32.0489 86.5398V88.7286C31.0309 88.6066 29.7391 89.0628 29.7391 90.659V94.2913H27.7789V86.6915H29.7391V87.9987C30.1338 86.9653 31.0914 86.5398 32.0489 86.5398Z"
                fill="white"
              ></path>
              <path
                d="M36.2583 88.5768V91.7385C36.2583 92.5596 36.8509 92.574 37.9755 92.5135V94.2922C35.2249 94.5967 34.2972 93.7909 34.2972 91.7385V88.5768H32.9747V86.6925H34.2972V85.1578L36.2574 84.5652V86.6935H37.9746V88.5778H36.2574L36.2583 88.5768Z"
                fill="white"
              ></path>
              <path
                d="M39.2068 84.5794C39.2068 83.9263 39.7543 83.3635 40.4073 83.3635C41.0604 83.3635 41.6232 83.9263 41.6232 84.5794C41.6232 85.2325 41.0758 85.7799 40.4073 85.7799C39.7389 85.7799 39.2068 85.2325 39.2068 84.5794ZM39.4344 86.6923H41.3946V94.292H39.4344V86.6923Z"
                fill="white"
              ></path>
              <path
                d="M45.6962 86.6165V86.6924H47.3078V88.5767H45.6962V94.2912H43.736V88.5767H42.6421V86.6924H43.736V86.6165C43.736 84.519 44.8914 83.2878 47.3078 83.4405V85.3248C46.2898 85.2489 45.6962 85.5831 45.6962 86.6165Z"
                fill="white"
              ></path>
              <path
                d="M48.3105 84.5794C48.3105 83.9263 48.8579 83.3635 49.511 83.3635C50.1641 83.3635 50.7269 83.9263 50.7269 84.5794C50.7269 85.2325 50.1795 85.7799 49.511 85.7799C48.8426 85.7799 48.3105 85.2325 48.3105 84.5794ZM48.5381 86.6923H50.4983V94.292H48.5381V86.6923Z"
                fill="white"
              ></path>
              <path
                d="M55.9093 92.7258C56.669 92.7258 57.2769 92.4069 57.6112 91.9661L59.192 92.8785C58.4775 93.9119 57.3375 94.5044 55.8786 94.5044C53.3249 94.5044 51.7142 92.7565 51.7142 90.4918C51.7142 88.2272 53.3402 86.4792 55.7268 86.4792C57.9761 86.4792 59.5723 88.2579 59.5723 90.4918C59.5723 90.7809 59.5416 91.0393 59.4965 91.2976H53.7666C54.0404 92.3013 54.8759 92.7267 55.9093 92.7267V92.7258ZM57.6112 89.7773C57.3682 88.6834 56.547 88.2426 55.7268 88.2426C54.6781 88.2426 53.9635 88.8054 53.7359 89.7773H57.6112Z"
                fill="white"
              ></path>
              <path
                d="M68.433 83.6528V94.2922H66.4728V93.3952C65.9254 94.0944 65.1206 94.5045 64.0103 94.5045C61.9733 94.5045 60.3022 92.7565 60.3022 90.4919C60.3022 88.2272 61.9743 86.4793 64.0103 86.4793C65.1196 86.4793 65.9254 86.8894 66.4728 87.5886V83.6519H68.433V83.6528ZM66.4728 90.4919C66.4728 89.2155 65.5758 88.3492 64.3753 88.3492C63.1748 88.3492 62.2624 89.2155 62.2624 90.4919C62.2624 91.7683 63.1594 92.6346 64.3753 92.6346C65.5912 92.6346 66.4728 91.7683 66.4728 90.4919Z"
                fill="white"
              ></path>
              <path
                d="M69.5446 102.684L68.6517 102.782C68.6298 102.598 68.5729 102.462 68.481 102.375C68.3891 102.287 68.2698 102.244 68.1232 102.244C67.9284 102.244 67.7632 102.331 67.6275 102.506C67.494 102.681 67.4098 103.046 67.3747 103.599C67.6045 103.328 67.8901 103.192 68.2315 103.192C68.6167 103.192 68.946 103.339 69.2196 103.632C69.4953 103.925 69.6332 104.304 69.6332 104.768C69.6332 105.26 69.4888 105.655 69.1999 105.953C68.911 106.251 68.5401 106.399 68.0871 106.399C67.6012 106.399 67.2019 106.211 66.8889 105.835C66.576 105.456 66.4195 104.837 66.4195 103.977C66.4195 103.095 66.5825 102.459 66.9086 102.07C67.2347 101.68 67.6581 101.485 68.179 101.485C68.5445 101.485 68.8465 101.588 69.085 101.794C69.3257 101.997 69.4789 102.294 69.5446 102.684ZM67.4535 104.696C67.4535 104.996 67.5225 105.228 67.6603 105.392C67.7982 105.554 67.9558 105.635 68.133 105.635C68.3037 105.635 68.446 105.568 68.5598 105.434C68.6736 105.301 68.7305 105.082 68.7305 104.778C68.7305 104.465 68.6692 104.236 68.5467 104.092C68.4241 103.945 68.2709 103.872 68.0871 103.872C67.9098 103.872 67.7599 103.942 67.6374 104.082C67.5148 104.22 67.4535 104.424 67.4535 104.696Z"
                fill="white"
              ></path>
              <path
                d="M65.7925 105.461V106.317H62.5591C62.5941 105.994 62.6992 105.687 62.8742 105.398C63.0493 105.107 63.3951 104.722 63.9116 104.243C64.3274 103.855 64.5823 103.593 64.6764 103.455C64.8034 103.265 64.8668 103.076 64.8668 102.89C64.8668 102.685 64.811 102.527 64.6994 102.418C64.59 102.306 64.4379 102.25 64.2431 102.25C64.0505 102.25 63.8973 102.308 63.7835 102.424C63.6697 102.54 63.6041 102.733 63.5866 103.002L62.6674 102.91C62.7222 102.402 62.8939 102.038 63.1828 101.817C63.4717 101.596 63.8328 101.485 64.2661 101.485C64.741 101.485 65.1141 101.613 65.3855 101.869C65.6568 102.125 65.7925 102.444 65.7925 102.825C65.7925 103.041 65.7531 103.248 65.6744 103.445C65.5978 103.64 65.4752 103.844 65.3067 104.059C65.1951 104.201 64.9937 104.406 64.7027 104.673C64.4116 104.94 64.2267 105.117 64.1479 105.205C64.0713 105.292 64.009 105.377 63.9608 105.461H65.7925Z"
                fill="white"
              ></path>
              <path
                d="M60.4944 101.485C60.9605 101.485 61.3249 101.652 61.5875 101.984C61.9004 102.378 62.0569 103.031 62.0569 103.944C62.0569 104.854 61.8993 105.509 61.5842 105.907C61.3238 106.235 60.9605 106.399 60.4944 106.399C60.026 106.399 59.6485 106.22 59.3619 105.861C59.0752 105.5 58.9318 104.858 58.9318 103.934C58.9318 103.028 59.0894 102.376 59.4045 101.978C59.6649 101.649 60.0282 101.485 60.4944 101.485ZM60.4944 102.25C60.3828 102.25 60.2832 102.286 60.1956 102.359C60.1081 102.429 60.0403 102.555 59.9921 102.739C59.9287 102.978 59.8969 103.379 59.8969 103.944C59.8969 104.509 59.9254 104.897 59.9823 105.109C60.0392 105.319 60.1103 105.46 60.1956 105.53C60.2832 105.6 60.3828 105.635 60.4944 105.635C60.606 105.635 60.7056 105.6 60.7931 105.53C60.8806 105.457 60.9485 105.329 60.9966 105.146C61.0601 104.909 61.0918 104.509 61.0918 103.944C61.0918 103.379 61.0634 102.992 61.0065 102.782C60.9496 102.57 60.8773 102.429 60.7898 102.359C60.7045 102.286 60.606 102.25 60.4944 102.25Z"
                fill="white"
              ></path>
              <path
                d="M58.3081 105.461V106.317H55.0746C55.1097 105.994 55.2147 105.687 55.3898 105.398C55.5649 105.107 55.9106 104.722 56.4271 104.243C56.8429 103.855 57.0979 103.593 57.192 103.455C57.3189 103.265 57.3824 103.076 57.3824 102.89C57.3824 102.685 57.3265 102.527 57.2149 102.418C57.1055 102.306 56.9534 102.25 56.7586 102.25C56.5661 102.25 56.4129 102.308 56.2991 102.424C56.1853 102.54 56.1196 102.733 56.1021 103.002L55.183 102.91C55.2377 102.402 55.4095 102.038 55.6984 101.817C55.9872 101.596 56.3483 101.485 56.7816 101.485C57.2565 101.485 57.6296 101.613 57.901 101.869C58.1724 102.125 58.3081 102.444 58.3081 102.825C58.3081 103.041 58.2687 103.248 58.1899 103.445C58.1133 103.64 57.9907 103.844 57.8222 104.059C57.7106 104.201 57.5093 104.406 57.2182 104.673C56.9272 104.94 56.7422 105.117 56.6635 105.205C56.5869 105.292 56.5245 105.377 56.4763 105.461H58.3081Z"
                fill="white"
              ></path>
              <path
                d="M48.6703 101.505H50.5939C50.9747 101.505 51.2581 101.522 51.4441 101.554C51.6323 101.585 51.7997 101.651 51.9463 101.751C52.0952 101.852 52.2188 101.987 52.3173 102.155C52.4158 102.321 52.465 102.509 52.465 102.716C52.465 102.942 52.4037 103.149 52.2812 103.337C52.1608 103.525 51.9967 103.666 51.7888 103.76C52.082 103.846 52.3074 103.991 52.465 104.197C52.6226 104.403 52.7014 104.644 52.7014 104.922C52.7014 105.141 52.6499 105.355 52.5471 105.562C52.4464 105.768 52.3074 105.933 52.1302 106.058C51.9551 106.181 51.7384 106.256 51.4802 106.285C51.3183 106.302 50.9276 106.313 50.3083 106.317H48.6703V101.505ZM49.6419 102.306V103.419H50.2788C50.6574 103.419 50.8926 103.413 50.9845 103.403C51.1508 103.383 51.2811 103.326 51.3752 103.232C51.4715 103.136 51.5196 103.01 51.5196 102.854C51.5196 102.705 51.478 102.585 51.3949 102.493C51.3139 102.399 51.1924 102.342 51.0305 102.323C50.9342 102.312 50.6574 102.306 50.2 102.306H49.6419ZM49.6419 104.22V105.507H50.5414C50.8915 105.507 51.1136 105.497 51.2077 105.477C51.3522 105.451 51.4693 105.387 51.559 105.287C51.6509 105.184 51.6969 105.047 51.6969 104.876C51.6969 104.732 51.6618 104.609 51.5918 104.509C51.5218 104.408 51.42 104.335 51.2865 104.289C51.1552 104.243 50.8685 104.22 50.4265 104.22H49.6419Z"
                fill="white"
              ></path>
              <path
                d="M44.1828 106.317V101.505H47.7511V102.319H45.1545V103.386H47.5705V104.197H45.1545V105.507H47.843V106.317H44.1828Z"
                fill="white"
              ></path>
              <path
                d="M40.0795 106.317V101.505H43.3786V102.319H41.0512V103.458H43.0601V104.272H41.0512V106.317H40.0795Z"
                fill="white"
              ></path>
              <path
                d="M37.7225 105.034V104.112H39.5346V105.034H37.7225Z"
                fill="white"
              ></path>
              <path
                d="M33.9016 105.08L34.8207 104.985C34.847 105.193 34.9246 105.358 35.0538 105.48C35.1829 105.601 35.3317 105.661 35.5002 105.661C35.6928 105.661 35.8558 105.583 35.9893 105.428C36.1228 105.27 36.1896 105.034 36.1896 104.719C36.1896 104.423 36.1228 104.202 35.9893 104.056C35.858 103.907 35.6862 103.833 35.4739 103.833C35.2091 103.833 34.9717 103.95 34.7616 104.184L34.0132 104.075L34.4859 101.571H36.9249V102.434H35.1851L35.0406 103.252C35.2463 103.149 35.4564 103.097 35.6709 103.097C36.0801 103.097 36.427 103.246 36.7115 103.544C36.996 103.841 37.1382 104.228 37.1382 104.702C37.1382 105.099 37.0234 105.452 36.7936 105.763C36.4806 106.187 36.0462 106.4 35.4904 106.4C35.0461 106.4 34.6839 106.28 34.4038 106.042C34.1237 105.803 33.9563 105.483 33.9016 105.08Z"
                fill="white"
              ></path>
              <path
                d="M33.2614 105.461V106.317H30.028C30.063 105.994 30.1681 105.687 30.3431 105.398C30.5182 105.107 30.864 104.722 31.3805 104.243C31.7963 103.855 32.0512 103.593 32.1453 103.455C32.2723 103.265 32.3357 103.076 32.3357 102.89C32.3357 102.685 32.2799 102.527 32.1683 102.418C32.0589 102.306 31.9068 102.25 31.712 102.25C31.5194 102.25 31.3662 102.308 31.2524 102.424C31.1386 102.54 31.073 102.733 31.0555 103.002L30.1363 102.91C30.1911 102.402 30.3628 102.038 30.6517 101.817C30.9406 101.596 31.3017 101.485 31.735 101.485C32.2099 101.485 32.583 101.613 32.8544 101.869C33.1257 102.125 33.2614 102.444 33.2614 102.825C33.2614 103.041 33.222 103.248 33.1433 103.445C33.0667 103.64 32.9441 103.844 32.7756 104.059C32.664 104.201 32.4626 104.406 32.1716 104.673C31.8805 104.94 31.6956 105.117 31.6168 105.205C31.5402 105.292 31.4779 105.377 31.4297 105.461H33.2614Z"
                fill="white"
              ></path>
              <path
                d="M27.9633 101.485C28.4294 101.485 28.7938 101.652 29.0564 101.984C29.3693 102.378 29.5258 103.031 29.5258 103.944C29.5258 104.854 29.3682 105.509 29.0531 105.907C28.7927 106.235 28.4294 106.399 27.9633 106.399C27.4949 106.399 27.1174 106.22 26.8308 105.861C26.5441 105.5 26.4007 104.858 26.4007 103.934C26.4007 103.028 26.5583 102.376 26.8734 101.978C27.1339 101.649 27.4971 101.485 27.9633 101.485ZM27.9633 102.25C27.8517 102.25 27.7521 102.286 27.6645 102.359C27.577 102.429 27.5092 102.555 27.461 102.739C27.3976 102.978 27.3658 103.379 27.3658 103.944C27.3658 104.509 27.3943 104.897 27.4512 105.109C27.5081 105.319 27.5792 105.46 27.6645 105.53C27.7521 105.6 27.8517 105.635 27.9633 105.635C28.0749 105.635 28.1745 105.6 28.262 105.53C28.3495 105.457 28.4174 105.329 28.4655 105.146C28.529 104.909 28.5607 104.509 28.5607 103.944C28.5607 103.379 28.5323 102.992 28.4754 102.782C28.4185 102.57 28.3462 102.429 28.2587 102.359C28.1734 102.286 28.0749 102.25 27.9633 102.25Z"
                fill="white"
              ></path>
              <path
                d="M25.777 105.461V106.317H22.5436C22.5786 105.994 22.6836 105.687 22.8587 105.398C23.0338 105.107 23.3795 104.722 23.896 104.243C24.3118 103.855 24.5668 103.593 24.6609 103.455C24.7878 103.265 24.8513 103.076 24.8513 102.89C24.8513 102.685 24.7955 102.527 24.6839 102.418C24.5744 102.306 24.4223 102.25 24.2276 102.25C24.035 102.25 23.8818 102.308 23.768 102.424C23.6542 102.54 23.5885 102.733 23.571 103.002L22.6519 102.91C22.7066 102.402 22.8784 102.038 23.1673 101.817C23.4561 101.596 23.8172 101.485 24.2505 101.485C24.7254 101.485 25.0986 101.613 25.3699 101.869C25.6413 102.125 25.777 102.444 25.777 102.825C25.777 103.041 25.7376 103.248 25.6588 103.445C25.5822 103.64 25.4597 103.844 25.2911 104.059C25.1795 104.201 24.9782 104.406 24.6871 104.673C24.3961 104.94 24.2112 105.117 24.1324 105.205C24.0558 105.292 23.9934 105.377 23.9453 105.461H25.777Z"
                fill="white"
              ></path>
              <path
                d="M16.1392 101.505H18.0628C18.4436 101.505 18.727 101.522 18.913 101.554C19.1012 101.585 19.2686 101.651 19.4152 101.751C19.5641 101.852 19.6877 101.987 19.7862 102.155C19.8847 102.321 19.9339 102.509 19.9339 102.716C19.9339 102.942 19.8726 103.149 19.7501 103.337C19.6297 103.525 19.4656 103.666 19.2577 103.76C19.5509 103.846 19.7763 103.991 19.9339 104.197C20.0915 104.403 20.1703 104.644 20.1703 104.922C20.1703 105.141 20.1188 105.355 20.016 105.562C19.9153 105.768 19.7763 105.933 19.5991 106.058C19.424 106.181 19.2073 106.256 18.9491 106.285C18.7872 106.302 18.3965 106.313 17.7772 106.317H16.1392V101.505ZM17.1108 102.306V103.419H17.7477C18.1263 103.419 18.3615 103.413 18.4534 103.403C18.6198 103.383 18.75 103.326 18.8441 103.232C18.9404 103.136 18.9885 103.01 18.9885 102.854C18.9885 102.705 18.9469 102.585 18.8638 102.493C18.7828 102.399 18.6613 102.342 18.4994 102.323C18.4031 102.312 18.1263 102.306 17.6689 102.306H17.1108ZM17.1108 104.22V105.507H18.0103C18.3604 105.507 18.5825 105.497 18.6767 105.477C18.8211 105.451 18.9382 105.387 19.0279 105.287C19.1198 105.184 19.1658 105.047 19.1658 104.876C19.1658 104.732 19.1308 104.609 19.0607 104.509C18.9907 104.408 18.8889 104.335 18.7554 104.289C18.6241 104.243 18.3374 104.22 17.8954 104.22H17.1108Z"
                fill="white"
              ></path>
              <path
                d="M11.6517 106.317V101.505H15.22V102.319H12.6234V103.386H15.0394V104.197H12.6234V105.507H15.3119V106.317H11.6517Z"
                fill="white"
              ></path>
              <path
                d="M7.5484 106.317V101.505H10.8475V102.319H8.52007V103.458H10.529V104.272H8.52007V106.317H7.5484Z"
                fill="white"
              ></path>
              <path
                d="M41.5218 118.035V113.222H45.09V114.036H42.4935V115.103H44.9095V115.914H42.4935V117.224H45.182V118.035H41.5218Z"
                fill="white"
              ></path>
              <path
                d="M41.0032 118.035H39.9462L39.526 116.941H37.6024L37.2052 118.035H36.1744L38.0488 113.222H39.0763L41.0032 118.035ZM39.2142 116.131L38.5511 114.345L37.9011 116.131H39.2142Z"
                fill="white"
              ></path>
              <path
                d="M31.7986 113.222H32.7702V115.829C32.7702 116.242 32.7823 116.51 32.8064 116.633C32.8479 116.83 32.9464 116.988 33.1018 117.109C33.2594 117.227 33.4738 117.286 33.7452 117.286C34.0209 117.286 34.2288 117.23 34.3689 117.119C34.509 117.005 34.5932 116.866 34.6217 116.702C34.6501 116.538 34.6643 116.265 34.6643 115.884V113.222H35.636V115.75C35.636 116.328 35.6097 116.736 35.5572 116.974C35.5047 117.213 35.4073 117.414 35.2651 117.578C35.125 117.742 34.9368 117.874 34.7004 117.972C34.4641 118.068 34.1555 118.117 33.7747 118.117C33.3152 118.117 32.9661 118.064 32.7276 117.959C32.4912 117.852 32.3041 117.714 32.1662 117.545C32.0284 117.375 31.9375 117.196 31.8938 117.01C31.8303 116.735 31.7986 116.328 31.7986 115.789V113.222Z"
                fill="white"
              ></path>
            </svg> 